<?xml version="1.0" encoding="utf-8"?>
<!-- Generator: Adobe Illustrator 19.1.0, SVG Export Plug-In . SVG Version: 6.00 Build 0)  -->
<svg version="1.1" id="Calque_1" xmlns="http://www.w3.org/2000/svg" xmlns:xlink="http://www.w3.org/1999/xlink" x="0px" y="0px"
	 viewBox="0 0 50 50" style="enable-background:new 0 0 50 50;" xml:space="preserve">
<style type="text/css">
	.st0{fill:#ECEBC1;}
</style>
<path class="st0" d="M31.7,12c0-0.2-0.2-0.4-0.4-0.5c-1.3-0.5-2.9-0.9-4.7-0.9c-1.4,0-2.9,0.3-4.3,1.1l0,0c-0.7,0.4-1.2,0.9-1.7,1.5
	c-0.6,0.9-1,1.9-1.2,2.9c-0.2,0.8-0.2,1.7-0.2,2.5c-0.4,0-0.8,0-1.1,0c-0.3,0-0.6,0-0.8,0c-0.1,0-0.2,0-0.3,0c-0.1,0-0.1,0-0.1,0
	c-0.2,0-0.3,0.1-0.4,0.2c-0.1,0.1-0.2,0.3-0.2,0.4l0,4.1c0,0.3,0.3,0.6,0.6,0.6c0,0,0.2,0,0.4,0c0.6,0,1.7,0,2.6,0
	c0.1,2.8,0.2,7,0.2,10.2c0,1.4,0,2.6,0,3.4c0,0.4,0,0.8,0,1c0,0.2,0,0.4,0,0.4c0,0.2,0.1,0.3,0.2,0.4c0.1,0.1,0.3,0.2,0.4,0.2l5.5,0
	c0.2,0,0.3-0.1,0.4-0.2c0.1-0.1,0.2-0.3,0.2-0.4c0,0,0-3.4-0.1-7c0-3.1-0.1-6.4-0.1-7.9c0.3,0,0.7,0,1.1,0c0.4,0,0.9,0,1.2,0
	c0.2,0,0.3,0,0.4,0c0.1,0,0.1,0,0.1,0c0.2,0,0.3-0.1,0.4-0.2c0.1-0.1,0.2-0.3,0.2-0.4l0-3.8c0-0.2-0.1-0.4-0.2-0.5
	c-0.1-0.1-0.3-0.2-0.4-0.2c0,0-0.1,0-0.2,0c-0.1,0-0.3,0.1-0.5,0.1c-0.7,0-1.7,0-2.5,0c0-0.4,0.1-0.8,0.1-1.1
	c0.1-0.3,0.1-0.6,0.2-0.8c0.1-0.2,0.2-0.3,0.2-0.4c0.1-0.2,0.3-0.3,0.5-0.3c0.2-0.1,0.4-0.1,0.7-0.1c0.5,0,1.2,0.2,2.1,0.5
	c0,0,0,0,0,0c0,0,0,0,0,0c0,0,0,0,0,0c0,0,0,0,0.1,0c0,0,0,0,0.1,0c0,0,0,0,0.1,0c0,0,0,0,0.1,0c0,0,0,0,0.1,0c0,0,0,0,0.1,0
	c0,0,0,0,0.1,0c0,0,0,0,0.1,0c0,0,0,0,0.1,0c0,0,0,0,0,0c0,0,0,0,0,0c0,0,0,0,0,0c0,0,0,0,0-0.1c0,0,0,0,0-0.1c0,0,0,0,0,0
	c0,0,0,0,0,0c0,0,0,0,0,0c0.1-0.4,0.3-1.1,0.5-1.8c0.1-0.4,0.2-0.7,0.2-1.1c0.1-0.4,0.1-0.7,0.1-1C31.8,12.3,31.7,12.2,31.7,12z
	 M26.6,15.4c-0.3,0.2-0.6,0.4-0.8,0.6c-0.3,0.4-0.5,0.9-0.7,1.5C25,18,25,18.7,25,19.4c0,0.1,0,0.1,0,0.2c0,0.3,0.3,0.5,0.6,0.5
	c0.9,0,2.3-0.1,3.2-0.1c0,0,0.1,0,0.1,0l0,2.6c-0.3,0-0.7,0-1.1,0c-0.7,0-1.3,0-1.8,0c-0.3,0-0.6,0.3-0.6,0.6c0,1,0.1,4.9,0.1,8.5
	c0,1.8,0,3.6,0,4.8c0,0.6,0,1.1,0,1.5l-4.2,0c0-0.8,0-2.4,0-4.2c0-3.5,0-8.1-0.2-10.9c0-0.3-0.3-0.6-0.6-0.6c-0.8,0-2.2,0-3,0l0-2.8
	c0.2,0,0.4,0,0.6,0c0.6,0,1.3,0,1.8,0c0.3,0,0.6-0.3,0.6-0.6c0-1.3,0.1-2.6,0.4-3.7c0.2-0.6,0.4-1.1,0.7-1.5
	c0.3-0.4,0.7-0.8,1.3-1.2l0,0c1.2-0.7,2.4-0.9,3.7-0.9c1.4,0,2.8,0.3,3.9,0.7c0,0.2,0,0.4-0.1,0.7c-0.1,0.5-0.2,1-0.4,1.5
	C30,15,30,15.2,29.9,15.4c-0.7-0.2-1.4-0.4-2-0.4C27.5,15.1,27,15.1,26.6,15.4z"/>
</svg>
