<?xml version="1.0" encoding="utf-8"?>
<!-- Generator: Adobe Illustrator 19.1.0, SVG Export Plug-In . SVG Version: 6.00 Build 0)  -->
<svg version="1.1" id="Calque_1" xmlns="http://www.w3.org/2000/svg" xmlns:xlink="http://www.w3.org/1999/xlink" x="0px" y="0px"
	 viewBox="0 0 50 50" style="enable-background:new 0 0 50 50;" xml:space="preserve">
<style type="text/css">
	.st0{fill:#ECEBC1;}
</style>
<path class="st0" d="M39.3,16.5c0-0.3-0.3-0.5-0.5-0.5c-0.8-0.1-1.6-0.1-2.4-0.1c-1.7,0-3.3,0.1-5,0.1c-0.3,0-0.6,0-0.9,0
	c-0.9,0-2,0-3.1,0c-1,0-2,0-3,0c-1,0-1.9,0-2.5,0c-1.5-0.1-3-0.1-4.6-0.1c-1.8,0-3.9,0-6.2,0c-0.3,0-0.6,0.3-0.6,0.6
	c0,1.8,0.1,3.9,0.1,5.9c0,0.8,0,1.6,0,2.2c-0.1,1.5-0.1,3.2-0.1,4.7c0,1.5,0,3,0,4.2c-0.1,0.2,0,0.4,0.1,0.5
	c0.1,0.2,0.3,0.3,0.5,0.3c1.5,0.1,3.4,0.1,5.3,0.1c2.1,0,4.4,0,6.4,0c1.3,0,2.6,0,3.7,0c0.7,0,1.4,0,2.3,0c2.1,0,4.5,0,6.6,0
	c0.7,0,1.4,0,2,0c0.6,0,1.1,0,1.4,0.1c0.2,0,0.3,0,0.4-0.1c0.1-0.1,0.2-0.3,0.2-0.4c0.1-1.6,0.1-3.4,0.1-5c0-2.3,0.1-4.4,0.1-6.5
	C39.5,20.5,39.5,18.5,39.3,16.5z M38.3,22.4c0,2.1,0,4.3-0.1,6.5c0,1.1,0,2.2-0.1,3.4c-2.3-2.7-4.8-5-6.8-7.6
	c0.4-0.4,0.9-0.9,1.3-1.3c1.6-1.5,3.1-3,4.3-4.2c0.5-0.5,0.9-0.9,1.2-1.2C38.3,19.5,38.3,20.9,38.3,22.4z M21.9,17.1
	c0.6,0,1.5,0,2.5,0c0.9,0,1.9,0,3,0c1.1,0,2.1,0,3,0c0.3,0,0.6,0,1,0c1.7,0,3.3-0.1,5-0.1c0.4,0,0.8,0,1.1,0
	c-0.7,0.6-1.7,1.6-2.9,2.8c-3.4,3.4-8.1,8.1-9.5,9.4c-0.9-0.8-3-2.7-5.4-5c-1.4-1.3-2.9-2.7-4.2-4.1c-1.1-1.1-2.1-2.2-3-3.2
	c1.8,0,3.4,0,4.8,0C19,17,20.5,17,21.9,17.1z M11.7,29.3c0-1.5,0-3.2,0.1-4.7c0-0.7,0-1.5,0-2.3c0-1.5,0-3,0-4.4
	c0.9,1,2,2.2,3.2,3.4c0.9,0.9,1.9,1.9,2.8,2.8c-0.2,0.2-0.4,0.4-0.6,0.7c-0.5,0.6-1.1,1.3-1.7,2.2c-1.3,1.7-2.8,3.6-3.8,5
	C11.7,31.1,11.7,30.2,11.7,29.3z M35.2,33.2c-2,0-4.5,0-6.6,0c-0.8,0-1.6,0-2.2,0c-1.1,0-2.3,0-3.7,0c-2,0-4.2,0-6.4,0
	c-1.5,0-2.9,0-4.2,0c0.7-0.9,1.7-2.3,2.8-3.7c0.8-1,1.5-2,2.2-2.9c0.3-0.4,0.6-0.8,0.9-1.1c0.2-0.2,0.4-0.4,0.5-0.6
	c3.3,3.1,6.1,5.7,6.1,5.7c0.2,0.2,0.6,0.2,0.8,0c0,0,0.1-0.1,0.1-0.1c0.5-0.6,2.6-2.6,4.9-4.9c2.1,2.7,4.6,5.1,6.9,7.7
	c-0.1,0-0.1,0-0.2,0C36.7,33.2,36,33.2,35.2,33.2z"/>
</svg>
