<?xml version="1.0" encoding="utf-8"?>
<!-- Generator: Adobe Illustrator 19.1.0, SVG Export Plug-In . SVG Version: 6.00 Build 0)  -->
<svg version="1.1" id="Calque_1" xmlns="http://www.w3.org/2000/svg" xmlns:xlink="http://www.w3.org/1999/xlink" x="0px" y="0px"
	 viewBox="0 0 50 50" style="enable-background:new 0 0 50 50;" xml:space="preserve">
<style type="text/css">
	.st0{fill:#ECEBC1;}
</style>
<g>
	<path class="st0" d="M32.9,15.9c-0.5-1.6-1.6-3-3-4c-1.5-1-3.4-1.5-5.6-1.5h0c-1.9,0-3.6,0.6-4.9,1.5c-1.3,1-2.2,2.3-2.8,3.8
		c-0.3,0.9-0.5,2-0.5,3c0,2.1,0.6,4.3,1.6,6l0,0c0.9,1.5,2,3.9,2.9,5.7c0.3,0.7,0.7,1.4,1,2.1c0.1,0.3,0.3,0.6,0.4,0.8
		c0.1,0.1,0.1,0.2,0.1,0.3c0,0.1,0.1,0.1,0.1,0.2v0c0.4,1,0.7,2.1,1.1,3c0.2,0.5,0.3,0.9,0.4,1.4c0.1,0.4,0.2,0.8,0.2,1
		c0,0.3,0.3,0.5,0.6,0.5c0,0,0,0,0.1,0c0.3,0,0.6-0.1,0.6-0.4l0,0c0-0.1,0.6-2.8,2.1-5.8c0.2-0.4,0.6-1.2,1-1.9
		c0.4-0.8,0.9-1.6,1.2-2.3c1.3-2.3,2.3-4.4,2.9-5.9c0.7-1.7,1.1-3.3,1.1-4.8C33.3,17.5,33.2,16.7,32.9,15.9z M31.2,22.8
		c-0.6,1.4-1.7,3.5-2.9,5.8c-0.4,0.7-0.8,1.5-1.3,2.3c-0.4,0.8-0.8,1.5-1,2c-0.8,1.6-1.3,3.1-1.7,4.2c-0.1-0.5-0.3-1-0.5-1.5
		c-0.3-0.8-0.5-1.6-0.8-2.3v0c0-0.1,0-0.1-0.1-0.2c-0.1-0.3-0.4-0.8-0.6-1.4c-0.3-0.6-0.6-1.2-0.8-1.8c-0.9-1.9-2-4.2-2.9-5.8l0,0
		c-0.9-1.6-1.4-3.6-1.4-5.5c0-0.9,0.1-1.8,0.4-2.6c0.4-1.3,1.2-2.4,2.4-3.2c1.1-0.8,2.6-1.3,4.3-1.3h0h0c2.1,0,3.8,0.5,5,1.3
		c1.3,0.8,2.1,2,2.6,3.4c0.2,0.7,0.3,1.5,0.3,2.3C32.2,19.8,31.9,21.3,31.2,22.8z"/>
	<path class="st0" d="M26.8,16.2c-0.2-0.2-0.5-0.3-0.7-0.4c-0.2-0.1-0.7-0.3-1.2-0.3c-0.5,0-1,0.1-1.4,0.3c-0.6,0.3-1.1,0.7-1.4,1.2
		c-0.3,0.5-0.4,1.1-0.4,1.7c0,0.8,0.2,1.6,0.7,2.2c0.2,0.3,0.5,0.6,0.9,0.8c0.4,0.2,0.8,0.3,1.2,0.3c0,0,0.1,0,0.1,0
		c0.5,0,1-0.1,1.4-0.3c0.6-0.3,1-0.7,1.3-1.3c0.3-0.5,0.4-1.1,0.4-1.7c0-0.4-0.1-0.7-0.2-1.1C27.5,17.1,27.2,16.6,26.8,16.2z
		 M26.6,19.5c-0.1,0.4-0.3,0.7-0.6,0.9c-0.3,0.2-0.7,0.4-1.2,0.4c0,0-0.1,0-0.1,0c-0.3,0-0.5-0.1-0.8-0.2c-0.3-0.2-0.6-0.4-0.8-0.8
		c-0.2-0.3-0.3-0.8-0.3-1.2c0-0.3,0-0.5,0.1-0.8c0.1-0.4,0.3-0.7,0.7-0.9c0.2-0.2,0.5-0.3,0.8-0.3c0.6-0.1,1.2,0.1,1.4,0.2
		c0.1,0.1,0.3,0.2,0.4,0.3c0.2,0.2,0.3,0.4,0.4,0.7c0.1,0.3,0.1,0.6,0.1,0.9C26.7,19,26.6,19.3,26.6,19.5z"/>
</g>
</svg>
