<?xml version="1.0" encoding="UTF-8"?>
<svg xmlns="http://www.w3.org/2000/svg" xmlns:xlink="http://www.w3.org/1999/xlink" version="1.2" >
<font id="Dooodleista Bold">
<font-face  font-family="Dooodleista" units-per-em="1000" ascent="750" descent="-250" font-style="normal" font-weight="700" font-stretch="normal" cap-height="700" x-height="500" underline-position="-75" underline-thickness="50" />
<missing-glyph  horiz-adv-x="500" d="" />
<glyph glyph-name="&amp;#x20;" unicode="&#x20;" horiz-adv-x="250" d="" />
<glyph glyph-name="&amp;#xa0;" unicode="&#xa0;" horiz-adv-x="250" d="" />
<glyph glyph-name="A" unicode="A" horiz-adv-x="278" d="M261 26 Q263 13 255.5 3 Q248 -7 235 -9 L230 -9 Q219 -9 210.5 -1.5 Q202 6 200 17 L175 191 L118 191 L98 29 Q96 16 86.5 8 Q77 0 64 2 Q51 4 43 14 Q35 24 37 37 L56 195 Q39 203 39 222 Q39 233 45.5 241.5 Q52 250 63 252 L112 643 Q114 654 122.5 662 Q131 670 142 670 Q154 670 162.5 662.5 Q171 655 173 643 L232 230 Q233 228 233 223 L261 26 Z M166 253 L145 405 L126 253 L166 253 Z " />
<glyph glyph-name="B" unicode="B" horiz-adv-x="264" d="M218 330 Q245 307 252.5 280 Q260 253 258 236 L258 135 Q258 100 248.5 75 Q239 50 225 34 Q211 18 196 9.5 Q181 1 169 -2 L163 -2 L75 -2 L70 -2 L65 -2 Q52 -2 43 7 Q34 16 34 29 L34 602 Q34 615 43 624 Q52 633 65 633 L145 633 Q149 633 151 632 Q165 629 184 620 Q203 611 220 595 Q237 579 248 555.5 Q259 532 258 500 L258 414 Q258 409 257 406 Q257 404 254.5 395.5 Q252 387 247.5 376 Q243 365 235.5 352.5 Q228 340 218 330 Z M96 364 L98 364 L160 364 Q172 367 182 385.5 Q192 404 196 418 L196 501 Q197 520 190 533 Q183 546 173.5 554 Q164 562 154.5 566 Q145 570 141 571 L96 571 L96 364 Z M197 243 Q197 244 196.5 250.5 Q196 257 191 266 Q186 275 174.5 285 Q163 295 141 302 L98 302 Q97 302 97 302.5 Q97 303 96 303 L96 60 L158 60 Q161 61 167.5 65 Q174 69 180.5 77 Q187 85 191.5 99 Q196 113 196 135 L196 238 Q196 241 197 243 Z " />
<glyph glyph-name="C" unicode="C" horiz-adv-x="292" d="M146 -3 Q117 -3 96 6.5 Q75 16 61 31 Q47 46 39 63.5 Q31 81 29 97 Q29 98 28.5 98.5 Q28 99 28 101 L28 519 Q28 521 29 522 Q32 556 46 577.5 Q60 599 78.5 611.5 Q97 624 116.5 628.5 Q136 633 151 633 Q178 632 196.5 622.5 Q215 613 227.5 600 Q240 587 246.5 572.5 Q253 558 255 548 Q255 546 255.5 545 Q256 544 256 542 L256 491 Q256 478 247 469 Q238 460 225 460 Q212 460 203 469 Q194 478 194 491 L194 539 Q192 545 183 557 Q174 569 149 571 Q144 571 135.5 569.5 Q127 568 117.5 563 Q108 558 100 547 Q92 536 90 518 L90 103 Q91 98 94 90 Q97 82 104.5 74.5 Q112 67 124 62 Q136 57 155 59 Q156 59 160.5 60.5 Q165 62 171 66.5 Q177 71 183.5 79.5 Q190 88 194 102 L194 150 Q194 163 203 172 Q212 181 225 181 Q238 181 247 172 Q256 163 256 150 L256 98 Q256 96 255.5 94.5 Q255 93 255 91 Q249 65 237.5 48 Q226 31 212.5 20 Q199 9 185 4 Q171 -1 161 -2 Q156 -3 146 -3 Z " />
<glyph glyph-name="D" unicode="D" horiz-adv-x="250" d="M141 663 Q143 663 160.5 659.5 Q178 656 198 639 Q218 622 235 587.5 Q252 553 253 492 L253 103 Q253 97 250 91 Q250 90 243.5 76.5 Q237 63 224 47.5 Q211 32 192 18 Q173 4 147 1 Q146 0 144 0 L66 0 Q53 0 44 9 Q35 18 35 31 L35 35 L35 39 L35 632 Q35 645 44 654 Q53 663 66 663 L141 663 Z M191 492 Q190 528 182.5 549.5 Q175 571 166 582.5 Q157 594 149 597.5 Q141 601 139 601 L97 601 L97 62 L142 62 Q151 63 159 69 Q167 75 173.5 82.5 Q180 90 184.5 97 Q189 104 191 109 L191 492 Z " />
<glyph glyph-name="E" unicode="E" horiz-adv-x="278" d="M239 61 Q253 61 261.5 52 Q270 43 270 30 Q270 17 261.5 8 Q253 -1 239 -1 L86 -1 Q72 -1 63.5 8 Q55 17 55 30 L55 296 Q45 298 38.5 306 Q32 314 32 325 Q32 336 38.5 344.5 Q45 353 55 355 L55 608 Q55 621 63.5 630 Q72 639 86 639 L239 639 Q253 639 261.5 630 Q270 621 270 608 Q270 595 261.5 586 Q253 577 239 577 L117 577 L117 356 L185 356 Q198 356 207 347.5 Q216 339 216 325 Q216 312 207 303 Q198 294 185 294 L117 294 L117 61 L239 61 Z " />
<glyph glyph-name="F" unicode="F" horiz-adv-x="292" d="M240 639 Q253 639 262 630 Q271 621 271 608 Q271 595 262 586 Q253 577 240 577 L117 577 L117 356 L185 356 Q198 356 207 347.5 Q216 339 216 325 Q216 312 207 303 Q198 294 185 294 L117 294 L117 30 Q117 17 108 8 Q99 -1 86 -1 Q73 -1 64 8 Q55 17 55 30 L55 296 Q45 298 38.5 306 Q32 314 32 325 Q32 336 38.5 344.5 Q45 353 55 355 L55 608 Q55 621 64 630 Q73 639 86 639 L240 639 Z " />
<glyph glyph-name="G" unicode="G" horiz-adv-x="278" d="M144 2 Q115 2 94 11.5 Q73 21 58.5 36 Q44 51 36 68.5 Q28 86 26 101 L26 105 L26 537 L26 539 Q29 573 43 595 Q57 617 75.5 629 Q94 641 114 645.5 Q134 650 148 650 Q175 649 194 639.5 Q213 630 225.5 617 Q238 604 244.5 590 Q251 576 253 565 L253 560 L253 508 Q253 495 244 486 Q235 477 222 477 Q209 477 200 486 Q191 495 191 508 L191 556 Q190 559 187.5 564 Q185 569 180 574.5 Q175 580 166.5 584 Q158 588 146 588 Q141 588 132.5 587 Q124 586 114.5 580.5 Q105 575 97.5 564.5 Q90 554 88 535 L88 108 Q89 103 92 95 Q95 87 102 79.5 Q109 72 121 67 Q133 62 152 64 Q153 64 157.5 65.5 Q162 67 168.5 71.5 Q175 76 181 84.5 Q187 93 191 107 L191 330 L130 330 Q117 330 108 339 Q99 348 99 361 Q99 374 108 383 Q117 392 130 392 L222 392 Q235 392 244 383 Q253 374 253 361 L253 103 Q253 98 252 96 Q246 70 234.5 53 Q223 36 209.5 25 Q196 14 182 8.5 Q168 3 158 2 L144 2 Z " />
<glyph glyph-name="H" unicode="H" horiz-adv-x="278" d="M228 655 Q241 655 250 646 Q259 637 259 624 L259 35 Q259 22 250 13 Q241 4 228 4 Q215 4 206 13 Q197 22 197 35 L197 309 L107 309 L107 35 Q107 22 98 13 Q89 4 76 4 Q63 4 54 13 Q45 22 45 35 L45 309 L36 309 Q23 309 14 318 Q5 327 5 340 Q5 353 14 362 Q23 371 36 371 L45 371 L45 624 Q45 637 54 646 Q63 655 76 655 Q89 655 98 646 Q107 637 107 624 L107 371 L197 371 L197 624 Q197 637 206 646 Q215 655 228 655 Z " />
<glyph glyph-name="I" unicode="I" horiz-adv-x="125" d="M58 5 Q45 5 36 14 Q27 23 27 36 L27 625 Q27 638 36 647 Q45 656 58 656 Q71 656 80 647 Q89 638 89 625 L89 36 Q89 23 80 14 Q71 5 58 5 Z " />
<glyph glyph-name="J" unicode="J" horiz-adv-x="236" d="M131 3 Q126 3 116 4 Q106 5 93 8.5 Q80 12 66 19 Q52 26 39 38 Q4 70 4 126 Q4 139 12.5 148 Q21 157 35 157 Q48 157 57 148 Q66 139 66 126 Q66 98 81 83 Q88 75 96.5 72 Q105 69 113 67 Q122 65 131 65 Q140 65 146 72 Q151 77 154.5 85.5 Q158 94 159.5 103 Q161 112 161 120.5 Q161 129 161 135 L161 643 Q161 656 170 664.5 Q179 673 192 673 Q205 673 214 664.5 Q223 656 223 643 L223 136 Q223 134 223 122.5 Q223 111 220.5 95.5 Q218 80 211.5 62 Q205 44 192 30 Q170 5 133 3 L131 3 Z " />
<glyph glyph-name="K" unicode="K" horiz-adv-x="250" d="M237 45 Q242 33 236 21.5 Q230 10 218 5 Q212 3 208 3 Q198 3 190 8.5 Q182 14 179 24 L90 268 L71 222 L71 34 Q71 21 62 12 Q53 3 40 3 Q27 3 18 12 Q9 21 9 34 L9 227 L9 228 L9 643 Q9 656 18 665 Q27 674 40 674 Q53 674 62 665 Q71 656 71 643 L71 387 L179 654 Q184 666 196 671.5 Q208 677 219 672 Q231 667 236.5 655 Q242 643 237 631 L124 353 Q124 353 126 349 L237 45 Z " />
<glyph glyph-name="L" unicode="L" horiz-adv-x="278" d="M193 1 L63 1 Q50 1 41 10 Q32 19 32 32 L32 631 Q32 644 41 653 Q50 662 63 662 Q76 662 85 653 Q94 644 94 631 L94 63 L193 63 Q206 63 215 54.5 Q224 46 224 32 Q224 19 215 10 Q206 1 193 1 Z " />
<glyph glyph-name="M" unicode="M" horiz-adv-x="319" d="M269 669 Q281 667 288.5 658 Q296 649 295 638 L286 32 Q286 19 277 10.5 Q268 2 255 2 Q241 2 232.5 11 Q224 20 224 33 L230 431 L196 326 Q193 316 185 310.5 Q177 305 167 305 Q156 304 148.5 310 Q141 316 137 326 L97 448 L97 33 Q97 20 88 11 Q79 2 66 2 Q52 2 43.5 11 Q35 20 35 33 L35 639 Q35 650 42.5 658.5 Q50 667 61 669 Q72 671 81.5 665 Q91 659 95 648 L166 435 L235 648 Q239 659 248.5 665 Q258 671 269 669 Z " />
<glyph glyph-name="N" unicode="N" horiz-adv-x="292" d="M263 240 L263 33 Q263 20 254 11 Q245 2 232 2 Q219 2 210 11 Q201 20 201 33 L201 234 L94 486 L94 33 Q94 20 85 11 Q76 2 63 2 Q50 2 41 11 Q32 20 32 33 L32 639 Q32 650 39 658.5 Q46 667 57 669 Q68 671 77.5 666 Q87 661 92 651 L201 393 L201 641 Q201 654 210 663 Q219 672 232 672 Q245 672 254 663 Q263 654 263 641 L263 241 L263 240 Z " />
<glyph glyph-name="O" unicode="O" horiz-adv-x="264" d="M146 0 Q139 0 136 1 Q108 3 88 13.5 Q68 24 55 39.5 Q42 55 35.5 74 Q29 93 29 112 L29 534 Q29 542 32 548 Q27 558 29 569 Q29 570 33.5 581.5 Q38 593 50 607 Q62 621 84.5 632.5 Q107 644 144 645 Q190 647 218 620 Q229 609 235 595.5 Q241 582 244 569.5 Q247 557 247.5 546.5 Q248 536 248 531 L248 99 L248 96 Q246 81 239.5 64 Q233 47 220.5 33 Q208 19 189.5 9.5 Q171 0 146 0 Z M87 548 Q91 540 91 534 L91 112 Q91 106 92.5 98 Q94 90 99.5 82.5 Q105 75 114.5 69.5 Q124 64 141 63 Q155 61 163.5 65.5 Q172 70 177 77 Q182 84 184 91 Q186 98 186 101 L186 529 Q186 537 184.5 552 Q183 567 174 576 Q172 578 166.5 581 Q161 584 146 583 Q128 583 117.5 579 Q107 575 101 570 Q95 565 92.5 560.5 Q90 556 90 555 Q89 553 88.5 551.5 Q88 550 87 548 Z " />
<glyph glyph-name="P" unicode="P" horiz-adv-x="278" d="M69 2 Q56 2 47 10.5 Q38 19 38 33 L38 308 Q29 311 23 319 Q17 327 17 337 Q17 348 23 355.5 Q29 363 38 367 L38 632 Q38 645 47 654 Q56 663 69 663 L141 663 L144 663 Q158 662 176.5 653.5 Q195 645 212 626 Q229 607 241.5 576 Q254 545 255 499 L255 397 Q255 391 254 388 Q254 387 249 375.5 Q244 364 232 350 Q220 336 200 323.5 Q180 311 150 307 Q149 306 146 306 L100 306 L100 33 Q100 19 91 10.5 Q82 2 69 2 Z M100 368 L144 368 Q168 372 179 384 Q190 396 193 402 L193 498 Q192 531 185 551 Q178 571 169 582 Q160 593 151 596.5 Q142 600 139 601 L100 601 L100 368 Z " />
<glyph glyph-name="Q" unicode="Q" horiz-adv-x="292" d="M268 29 Q278 20 278 7.5 Q278 -5 270 -15 Q261 -25 247 -25 Q236 -25 226 -17 L197 10 Q187 5 175 1.5 Q163 -2 149 -2 Q142 -2 139 -1 Q111 1 91 11.5 Q71 22 57.5 37.5 Q44 53 37.5 72 Q31 91 31 110 L31 541 Q31 557 37 575 Q43 593 57 608.5 Q71 624 93 634 Q115 644 147 644 Q159 644 176.5 640.5 Q194 637 210.5 625.5 Q227 614 239 591.5 Q251 569 251 530 L251 97 L251 94 Q249 75 239 56 L268 29 Z M93 110 Q93 104 95 96 Q97 88 102 80.5 Q107 73 117 67.5 Q127 62 143 61 L120 82 Q111 90 110.5 103 Q110 116 118 126 Q127 135 140 135.5 Q153 136 162 127 L189 102 L189 528 Q189 562 178 572 Q167 582 147 582 Q128 582 117 576.5 Q106 571 101 564 Q96 557 94.5 550.5 Q93 544 93 541 L93 110 Z " />
<glyph glyph-name="R" unicode="R" horiz-adv-x="278" d="M223 353 Q234 341 241.5 323.5 Q249 306 251 282 L251 280 L251 32 Q251 19 242.5 10 Q234 1 220 1 Q207 1 198 10 Q189 19 189 32 L189 278 Q187 298 179.5 307.5 Q172 317 166 320 Q159 318 147 316 L143 316 L97 316 L97 29 Q97 16 88 7 Q79 -2 66 -2 Q52 -2 43.5 7 Q35 16 35 29 L35 318 Q14 324 14 347 Q14 357 19.5 365 Q25 373 35 376 L35 631 Q35 644 43.5 653 Q52 662 66 662 L138 662 L141 662 Q155 660 173.5 651.5 Q192 643 209 624 Q226 605 238 574 Q250 543 251 497 L251 406 Q251 400 250 397 Q250 396 244 382.5 Q238 369 223 353 Z M97 378 L141 378 Q145 379 148 379.5 Q151 380 155 381 Q155 381 157 382 Q172 388 179.5 397.5 Q187 407 189 412 L189 497 Q189 530 181.5 550 Q174 570 165 581 Q156 592 147.5 595.5 Q139 599 135 600 L97 600 L97 378 Z " />
<glyph glyph-name="S" unicode="S" horiz-adv-x="250" d="M125 2 L121 2 Q108 3 90.5 8 Q73 13 56.5 25 Q40 37 28 56.5 Q16 76 14 105 L14 108 L14 160 Q14 173 23 182 Q32 191 45 191 Q58 191 67 182 Q76 173 76 160 L76 109 Q77 94 84 85 Q91 76 99.5 71.5 Q108 67 114.5 65.5 Q121 64 123 64 Q141 63 152.5 68.5 Q164 74 170.5 82 Q177 90 180.5 98 Q184 106 185 110 Q185 115 184.5 124 Q184 133 184 143.5 Q184 154 184 164.5 Q184 175 185 183 Q186 191 183 201.5 Q180 212 177 219 L24 456 Q22 459 19.5 466.5 Q17 474 15.5 486 Q14 498 15 514.5 Q16 531 21 553 Q26 576 38.5 591.5 Q51 607 66 616.5 Q81 626 96.5 631 Q112 636 124 637 L126 637 Q154 637 173.5 627.5 Q193 618 206.5 604 Q220 590 227 574.5 Q234 559 236 547 L236 542 L236 487 Q236 474 227 465 Q218 456 205 456 Q192 456 183 465 Q174 474 174 487 L174 538 Q173 541 170.5 547 Q168 553 163 559 Q158 565 149 570 Q140 575 127 575 Q125 575 118.5 573.5 Q112 572 104.5 568 Q97 564 90.5 557 Q84 550 81 539 Q75 513 76 501 Q77 489 78 487 L232 248 Q233 247 233 246.5 Q233 246 234 245 Q236 240 242.5 219.5 Q249 199 247 177 Q246 171 246 161.5 Q246 152 246 142 Q246 132 246.5 123 Q247 114 247 109 L247 102 Q245 89 237 71.5 Q229 54 214.5 38.5 Q200 23 178 12.5 Q156 2 125 2 Z " />
<glyph glyph-name="T" unicode="T" horiz-adv-x="306" d="M247 657 Q260 657 269 648 Q278 639 278 626 Q278 612 269 603.5 Q260 595 247 595 L181 595 L181 30 Q181 17 172 8 Q163 -1 150 -1 Q137 -1 128 8 Q119 17 119 30 L119 595 L54 595 Q41 595 32 603.5 Q23 612 23 626 Q23 639 32 648 Q41 657 54 657 L247 657 Z " />
<glyph glyph-name="U" unicode="U" horiz-adv-x="292" d="M150 -1 Q143 -1 138 0 Q133 1 129 2 Q87 5 59 36 Q44 52 36.5 72.5 Q29 93 26 111.5 Q23 130 23.5 144 Q24 158 24 163 L24 623 Q24 636 33 644.5 Q42 653 55 653 Q68 653 77 644.5 Q86 636 86 623 L86 162 L86 159 Q85 153 85.5 143 Q86 133 88 121 Q90 109 94 97 Q98 85 105 77 Q117 64 135 64 Q138 64 144 62 Q145 62 151 61.5 Q157 61 165 66 Q168 68 172.5 73.5 Q177 79 181 90.5 Q185 102 188.5 119.5 Q192 137 192 163 L192 623 Q192 636 201 644.5 Q210 653 223 653 Q236 653 245 644.5 Q254 636 254 623 L254 162 Q253 52 199 15 Q186 6 173.5 2.5 Q161 -1 150 -1 Z " />
<glyph glyph-name="V" unicode="V" horiz-adv-x="278" d="M136 4 L135 4 Q124 4 115.5 11.5 Q107 19 105 31 L36 619 Q34 632 42 642 Q50 652 63 654 Q76 656 86 648 Q96 640 98 627 L139 272 L191 627 Q193 640 203 648 Q213 656 226 654 Q239 652 246.5 641.5 Q254 631 252 618 L166 30 Q164 19 155.5 11.5 Q147 4 136 4 Z " />
<glyph glyph-name="W" unicode="W" horiz-adv-x="375" d="M256 3 Q245 3 236.5 10 Q228 17 226 28 L188 227 L148 28 Q145 16 136 9 Q127 2 115 3 Q104 4 96 12 Q88 20 86 31 L36 605 Q34 618 42.5 627.5 Q51 637 64 639 Q77 640 86.5 631.5 Q96 623 97 610 L129 250 L158 394 Q160 405 168.5 412 Q177 419 188 419 L189 419 Q200 419 208.5 412 Q217 405 219 394 L243 267 L270 610 Q271 623 280.5 631.5 Q290 640 303 639 Q316 637 324.5 627.5 Q333 618 332 605 L287 31 Q286 20 277.5 12 Q269 4 258 3 L256 3 Z " />
<glyph glyph-name="X" unicode="X" horiz-adv-x="292" d="M261 41 Q264 28 257.5 17 Q251 6 239 3 Q236 2 231 2 Q208 2 201 25 L150 215 L103 25 Q101 14 92.5 8 Q84 2 73 2 Q68 2 66 3 Q53 6 46.5 17 Q40 28 43 40 L116 339 L43 611 Q40 624 46.5 635 Q53 646 65 649 Q78 652 89 646 Q100 640 103 627 L147 464 L190 642 Q193 654 204 661 Q215 668 228 665 Q240 662 247 651 Q254 640 251 627 L180 340 L261 41 Z " />
<glyph glyph-name="Y" unicode="Y" horiz-adv-x="264" d="M223 692 Q236 689 243 678.5 Q250 668 247 655 L162 235 L162 35 Q162 21 153 12.5 Q144 4 131 4 Q118 4 109 12.5 Q100 21 100 35 L100 236 L31 656 Q29 669 36.5 679.5 Q44 690 57 692 Q70 694 80 686.5 Q90 679 92 666 L134 410 L186 667 Q189 680 199.5 687 Q210 694 223 692 Z " />
<glyph glyph-name="Z" unicode="Z" horiz-adv-x="292" d="M230 1 L47 1 Q32 1 22 14 Q14 25 17 41 L188 599 L47 599 Q34 599 25 608 Q16 617 16 630 Q16 644 25 652.5 Q34 661 47 661 L230 661 Q246 661 254 649 Q264 636 259 621 L89 63 L230 63 Q243 63 252 54.5 Q261 46 261 32 Q261 19 252 10 Q243 1 230 1 Z " />
<glyph glyph-name="a" unicode="a" horiz-adv-x="278" d="M261 26 Q263 13 255.5 3 Q248 -7 235 -9 L230 -9 Q219 -9 210.5 -1.5 Q202 6 200 17 L175 191 L118 191 L98 29 Q96 16 86.5 8 Q77 0 64 2 Q51 4 43 14 Q35 24 37 37 L56 195 Q39 203 39 222 Q39 233 45.5 241.5 Q52 250 63 252 L112 643 Q114 654 122.5 662 Q131 670 142 670 Q154 670 162.5 662.5 Q171 655 173 643 L232 230 Q233 228 233 223 L261 26 Z M166 253 L145 405 L126 253 L166 253 Z " />
<glyph glyph-name="b" unicode="b" horiz-adv-x="264" d="M218 330 Q245 307 252.5 280 Q260 253 258 236 L258 135 Q258 100 248.5 75 Q239 50 225 34 Q211 18 196 9.5 Q181 1 169 -2 L163 -2 L75 -2 L70 -2 L65 -2 Q52 -2 43 7 Q34 16 34 29 L34 602 Q34 615 43 624 Q52 633 65 633 L145 633 Q149 633 151 632 Q165 629 184 620 Q203 611 220 595 Q237 579 248 555.5 Q259 532 258 500 L258 414 Q258 409 257 406 Q257 404 254.5 395.5 Q252 387 247.5 376 Q243 365 235.5 352.5 Q228 340 218 330 Z M96 364 L98 364 L160 364 Q172 367 182 385.5 Q192 404 196 418 L196 501 Q197 520 190 533 Q183 546 173.5 554 Q164 562 154.5 566 Q145 570 141 571 L96 571 L96 364 Z M197 243 Q197 244 196.5 250.5 Q196 257 191 266 Q186 275 174.5 285 Q163 295 141 302 L98 302 Q97 302 97 302.5 Q97 303 96 303 L96 60 L158 60 Q161 61 167.5 65 Q174 69 180.5 77 Q187 85 191.5 99 Q196 113 196 135 L196 238 Q196 241 197 243 Z " />
<glyph glyph-name="c" unicode="c" horiz-adv-x="292" d="M146 -3 Q117 -3 96 6.5 Q75 16 61 31 Q47 46 39 63.5 Q31 81 29 97 Q29 98 28.5 98.5 Q28 99 28 101 L28 519 Q28 521 29 522 Q32 556 46 577.5 Q60 599 78.5 611.5 Q97 624 116.5 628.5 Q136 633 151 633 Q178 632 196.5 622.5 Q215 613 227.5 600 Q240 587 246.5 572.5 Q253 558 255 548 Q255 546 255.5 545 Q256 544 256 542 L256 491 Q256 478 247 469 Q238 460 225 460 Q212 460 203 469 Q194 478 194 491 L194 539 Q192 545 183 557 Q174 569 149 571 Q144 571 135.5 569.5 Q127 568 117.5 563 Q108 558 100 547 Q92 536 90 518 L90 103 Q91 98 94 90 Q97 82 104.5 74.5 Q112 67 124 62 Q136 57 155 59 Q156 59 160.5 60.5 Q165 62 171 66.5 Q177 71 183.5 79.5 Q190 88 194 102 L194 150 Q194 163 203 172 Q212 181 225 181 Q238 181 247 172 Q256 163 256 150 L256 98 Q256 96 255.5 94.5 Q255 93 255 91 Q249 65 237.5 48 Q226 31 212.5 20 Q199 9 185 4 Q171 -1 161 -2 Q156 -3 146 -3 Z " />
<glyph glyph-name="d" unicode="d" horiz-adv-x="250" d="M141 663 Q143 663 160.5 659.5 Q178 656 198 639 Q218 622 235 587.5 Q252 553 253 492 L253 103 Q253 97 250 91 Q250 90 243.5 76.5 Q237 63 224 47.5 Q211 32 192 18 Q173 4 147 1 Q146 0 144 0 L66 0 Q53 0 44 9 Q35 18 35 31 L35 35 L35 39 L35 632 Q35 645 44 654 Q53 663 66 663 L141 663 Z M191 492 Q190 528 182.5 549.5 Q175 571 166 582.5 Q157 594 149 597.5 Q141 601 139 601 L97 601 L97 62 L142 62 Q151 63 159 69 Q167 75 173.5 82.5 Q180 90 184.5 97 Q189 104 191 109 L191 492 Z " />
<glyph glyph-name="e" unicode="e" horiz-adv-x="278" d="M239 61 Q253 61 261.5 52 Q270 43 270 30 Q270 17 261.5 8 Q253 -1 239 -1 L86 -1 Q72 -1 63.5 8 Q55 17 55 30 L55 296 Q45 298 38.5 306 Q32 314 32 325 Q32 336 38.5 344.5 Q45 353 55 355 L55 608 Q55 621 63.5 630 Q72 639 86 639 L239 639 Q253 639 261.5 630 Q270 621 270 608 Q270 595 261.5 586 Q253 577 239 577 L117 577 L117 356 L185 356 Q198 356 207 347.5 Q216 339 216 325 Q216 312 207 303 Q198 294 185 294 L117 294 L117 61 L239 61 Z " />
<glyph glyph-name="f" unicode="f" horiz-adv-x="292" d="M240 639 Q253 639 262 630 Q271 621 271 608 Q271 595 262 586 Q253 577 240 577 L117 577 L117 356 L185 356 Q198 356 207 347.5 Q216 339 216 325 Q216 312 207 303 Q198 294 185 294 L117 294 L117 30 Q117 17 108 8 Q99 -1 86 -1 Q73 -1 64 8 Q55 17 55 30 L55 296 Q45 298 38.5 306 Q32 314 32 325 Q32 336 38.5 344.5 Q45 353 55 355 L55 608 Q55 621 64 630 Q73 639 86 639 L240 639 Z " />
<glyph glyph-name="g" unicode="g" horiz-adv-x="278" d="M144 2 Q115 2 94 11.5 Q73 21 58.5 36 Q44 51 36 68.5 Q28 86 26 101 L26 105 L26 537 L26 539 Q29 573 43 595 Q57 617 75.5 629 Q94 641 114 645.5 Q134 650 148 650 Q175 649 194 639.5 Q213 630 225.5 617 Q238 604 244.5 590 Q251 576 253 565 L253 560 L253 508 Q253 495 244 486 Q235 477 222 477 Q209 477 200 486 Q191 495 191 508 L191 556 Q190 559 187.5 564 Q185 569 180 574.5 Q175 580 166.5 584 Q158 588 146 588 Q141 588 132.5 587 Q124 586 114.5 580.5 Q105 575 97.5 564.5 Q90 554 88 535 L88 108 Q89 103 92 95 Q95 87 102 79.5 Q109 72 121 67 Q133 62 152 64 Q153 64 157.5 65.5 Q162 67 168.5 71.5 Q175 76 181 84.5 Q187 93 191 107 L191 330 L130 330 Q117 330 108 339 Q99 348 99 361 Q99 374 108 383 Q117 392 130 392 L222 392 Q235 392 244 383 Q253 374 253 361 L253 103 Q253 98 252 96 Q246 70 234.5 53 Q223 36 209.5 25 Q196 14 182 8.5 Q168 3 158 2 L144 2 Z " />
<glyph glyph-name="h" unicode="h" horiz-adv-x="278" d="M228 655 Q241 655 250 646 Q259 637 259 624 L259 35 Q259 22 250 13 Q241 4 228 4 Q215 4 206 13 Q197 22 197 35 L197 309 L107 309 L107 35 Q107 22 98 13 Q89 4 76 4 Q63 4 54 13 Q45 22 45 35 L45 309 L36 309 Q23 309 14 318 Q5 327 5 340 Q5 353 14 362 Q23 371 36 371 L45 371 L45 624 Q45 637 54 646 Q63 655 76 655 Q89 655 98 646 Q107 637 107 624 L107 371 L197 371 L197 624 Q197 637 206 646 Q215 655 228 655 Z " />
<glyph glyph-name="i" unicode="i" horiz-adv-x="125" d="M58 5 Q45 5 36 14 Q27 23 27 36 L27 625 Q27 638 36 647 Q45 656 58 656 Q71 656 80 647 Q89 638 89 625 L89 36 Q89 23 80 14 Q71 5 58 5 Z " />
<glyph glyph-name="j" unicode="j" horiz-adv-x="236" d="M131 3 Q126 3 116 4 Q106 5 93 8.5 Q80 12 66 19 Q52 26 39 38 Q4 70 4 126 Q4 139 12.5 148 Q21 157 35 157 Q48 157 57 148 Q66 139 66 126 Q66 98 81 83 Q88 75 96.5 72 Q105 69 113 67 Q122 65 131 65 Q140 65 146 72 Q151 77 154.5 85.5 Q158 94 159.5 103 Q161 112 161 120.5 Q161 129 161 135 L161 643 Q161 656 170 664.5 Q179 673 192 673 Q205 673 214 664.5 Q223 656 223 643 L223 136 Q223 134 223 122.5 Q223 111 220.5 95.5 Q218 80 211.5 62 Q205 44 192 30 Q170 5 133 3 L131 3 Z " />
<glyph glyph-name="k" unicode="k" horiz-adv-x="250" d="M237 45 Q242 33 236 21.5 Q230 10 218 5 Q212 3 208 3 Q198 3 190 8.5 Q182 14 179 24 L90 268 L71 222 L71 34 Q71 21 62 12 Q53 3 40 3 Q27 3 18 12 Q9 21 9 34 L9 227 L9 228 L9 643 Q9 656 18 665 Q27 674 40 674 Q53 674 62 665 Q71 656 71 643 L71 387 L179 654 Q184 666 196 671.5 Q208 677 219 672 Q231 667 236.5 655 Q242 643 237 631 L124 353 Q124 353 126 349 L237 45 Z " />
<glyph glyph-name="l" unicode="l" horiz-adv-x="278" d="M193 1 L63 1 Q50 1 41 10 Q32 19 32 32 L32 631 Q32 644 41 653 Q50 662 63 662 Q76 662 85 653 Q94 644 94 631 L94 63 L193 63 Q206 63 215 54.5 Q224 46 224 32 Q224 19 215 10 Q206 1 193 1 Z " />
<glyph glyph-name="m" unicode="m" horiz-adv-x="319" d="M269 669 Q281 667 288.5 658 Q296 649 295 638 L286 32 Q286 19 277 10.5 Q268 2 255 2 Q241 2 232.5 11 Q224 20 224 33 L230 431 L196 326 Q193 316 185 310.5 Q177 305 167 305 Q156 304 148.5 310 Q141 316 137 326 L97 448 L97 33 Q97 20 88 11 Q79 2 66 2 Q52 2 43.5 11 Q35 20 35 33 L35 639 Q35 650 42.5 658.5 Q50 667 61 669 Q72 671 81.5 665 Q91 659 95 648 L166 435 L235 648 Q239 659 248.5 665 Q258 671 269 669 Z " />
<glyph glyph-name="n" unicode="n" horiz-adv-x="292" d="M263 240 L263 33 Q263 20 254 11 Q245 2 232 2 Q219 2 210 11 Q201 20 201 33 L201 234 L94 486 L94 33 Q94 20 85 11 Q76 2 63 2 Q50 2 41 11 Q32 20 32 33 L32 639 Q32 650 39 658.5 Q46 667 57 669 Q68 671 77.5 666 Q87 661 92 651 L201 393 L201 641 Q201 654 210 663 Q219 672 232 672 Q245 672 254 663 Q263 654 263 641 L263 241 L263 240 Z " />
<glyph glyph-name="o" unicode="o" horiz-adv-x="264" d="M146 0 Q139 0 136 1 Q108 3 88 13.5 Q68 24 55 39.5 Q42 55 35.5 74 Q29 93 29 112 L29 534 Q29 542 32 548 Q27 558 29 569 Q29 570 33.5 581.5 Q38 593 50 607 Q62 621 84.5 632.5 Q107 644 144 645 Q190 647 218 620 Q229 609 235 595.5 Q241 582 244 569.5 Q247 557 247.5 546.5 Q248 536 248 531 L248 99 L248 96 Q246 81 239.5 64 Q233 47 220.5 33 Q208 19 189.5 9.5 Q171 0 146 0 Z M87 548 Q91 540 91 534 L91 112 Q91 106 92.5 98 Q94 90 99.5 82.5 Q105 75 114.5 69.5 Q124 64 141 63 Q155 61 163.5 65.5 Q172 70 177 77 Q182 84 184 91 Q186 98 186 101 L186 529 Q186 537 184.5 552 Q183 567 174 576 Q172 578 166.5 581 Q161 584 146 583 Q128 583 117.5 579 Q107 575 101 570 Q95 565 92.5 560.5 Q90 556 90 555 Q89 553 88.5 551.5 Q88 550 87 548 Z " />
<glyph glyph-name="p" unicode="p" horiz-adv-x="278" d="M69 2 Q56 2 47 10.5 Q38 19 38 33 L38 308 Q29 311 23 319 Q17 327 17 337 Q17 348 23 355.5 Q29 363 38 367 L38 632 Q38 645 47 654 Q56 663 69 663 L141 663 L144 663 Q158 662 176.5 653.5 Q195 645 212 626 Q229 607 241.5 576 Q254 545 255 499 L255 397 Q255 391 254 388 Q254 387 249 375.5 Q244 364 232 350 Q220 336 200 323.5 Q180 311 150 307 Q149 306 146 306 L100 306 L100 33 Q100 19 91 10.5 Q82 2 69 2 Z M100 368 L144 368 Q168 372 179 384 Q190 396 193 402 L193 498 Q192 531 185 551 Q178 571 169 582 Q160 593 151 596.5 Q142 600 139 601 L100 601 L100 368 Z " />
<glyph glyph-name="q" unicode="q" horiz-adv-x="292" d="M268 29 Q278 20 278 7.5 Q278 -5 270 -15 Q261 -25 247 -25 Q236 -25 226 -17 L197 10 Q187 5 175 1.5 Q163 -2 149 -2 Q142 -2 139 -1 Q111 1 91 11.5 Q71 22 57.5 37.5 Q44 53 37.5 72 Q31 91 31 110 L31 541 Q31 557 37 575 Q43 593 57 608.5 Q71 624 93 634 Q115 644 147 644 Q159 644 176.5 640.5 Q194 637 210.5 625.5 Q227 614 239 591.5 Q251 569 251 530 L251 97 L251 94 Q249 75 239 56 L268 29 Z M93 110 Q93 104 95 96 Q97 88 102 80.5 Q107 73 117 67.5 Q127 62 143 61 L120 82 Q111 90 110.5 103 Q110 116 118 126 Q127 135 140 135.5 Q153 136 162 127 L189 102 L189 528 Q189 562 178 572 Q167 582 147 582 Q128 582 117 576.5 Q106 571 101 564 Q96 557 94.5 550.5 Q93 544 93 541 L93 110 Z " />
<glyph glyph-name="r" unicode="r" horiz-adv-x="278" d="M223 353 Q234 341 241.5 323.5 Q249 306 251 282 L251 280 L251 32 Q251 19 242.5 10 Q234 1 220 1 Q207 1 198 10 Q189 19 189 32 L189 278 Q187 298 179.5 307.5 Q172 317 166 320 Q159 318 147 316 L143 316 L97 316 L97 29 Q97 16 88 7 Q79 -2 66 -2 Q52 -2 43.5 7 Q35 16 35 29 L35 318 Q14 324 14 347 Q14 357 19.5 365 Q25 373 35 376 L35 631 Q35 644 43.5 653 Q52 662 66 662 L138 662 L141 662 Q155 660 173.5 651.5 Q192 643 209 624 Q226 605 238 574 Q250 543 251 497 L251 406 Q251 400 250 397 Q250 396 244 382.5 Q238 369 223 353 Z M97 378 L141 378 Q145 379 148 379.5 Q151 380 155 381 Q155 381 157 382 Q172 388 179.5 397.5 Q187 407 189 412 L189 497 Q189 530 181.5 550 Q174 570 165 581 Q156 592 147.5 595.5 Q139 599 135 600 L97 600 L97 378 Z " />
<glyph glyph-name="s" unicode="s" horiz-adv-x="250" d="M125 2 L121 2 Q108 3 90.5 8 Q73 13 56.5 25 Q40 37 28 56.5 Q16 76 14 105 L14 108 L14 160 Q14 173 23 182 Q32 191 45 191 Q58 191 67 182 Q76 173 76 160 L76 109 Q77 94 84 85 Q91 76 99.5 71.5 Q108 67 114.5 65.5 Q121 64 123 64 Q141 63 152.5 68.5 Q164 74 170.5 82 Q177 90 180.5 98 Q184 106 185 110 Q185 115 184.5 124 Q184 133 184 143.5 Q184 154 184 164.5 Q184 175 185 183 Q186 191 183 201.5 Q180 212 177 219 L24 456 Q22 459 19.5 466.5 Q17 474 15.5 486 Q14 498 15 514.5 Q16 531 21 553 Q26 576 38.5 591.5 Q51 607 66 616.5 Q81 626 96.5 631 Q112 636 124 637 L126 637 Q154 637 173.5 627.5 Q193 618 206.5 604 Q220 590 227 574.5 Q234 559 236 547 L236 542 L236 487 Q236 474 227 465 Q218 456 205 456 Q192 456 183 465 Q174 474 174 487 L174 538 Q173 541 170.5 547 Q168 553 163 559 Q158 565 149 570 Q140 575 127 575 Q125 575 118.5 573.5 Q112 572 104.5 568 Q97 564 90.5 557 Q84 550 81 539 Q75 513 76 501 Q77 489 78 487 L232 248 Q233 247 233 246.5 Q233 246 234 245 Q236 240 242.5 219.5 Q249 199 247 177 Q246 171 246 161.5 Q246 152 246 142 Q246 132 246.5 123 Q247 114 247 109 L247 102 Q245 89 237 71.5 Q229 54 214.5 38.5 Q200 23 178 12.5 Q156 2 125 2 Z " />
<glyph glyph-name="t" unicode="t" horiz-adv-x="306" d="M247 657 Q260 657 269 648 Q278 639 278 626 Q278 612 269 603.5 Q260 595 247 595 L181 595 L181 30 Q181 17 172 8 Q163 -1 150 -1 Q137 -1 128 8 Q119 17 119 30 L119 595 L54 595 Q41 595 32 603.5 Q23 612 23 626 Q23 639 32 648 Q41 657 54 657 L247 657 Z " />
<glyph glyph-name="u" unicode="u" horiz-adv-x="292" d="M150 -1 Q143 -1 138 0 Q133 1 129 2 Q87 5 59 36 Q44 52 36.5 72.5 Q29 93 26 111.5 Q23 130 23.5 144 Q24 158 24 163 L24 623 Q24 636 33 644.5 Q42 653 55 653 Q68 653 77 644.5 Q86 636 86 623 L86 162 L86 159 Q85 153 85.5 143 Q86 133 88 121 Q90 109 94 97 Q98 85 105 77 Q117 64 135 64 Q138 64 144 62 Q145 62 151 61.5 Q157 61 165 66 Q168 68 172.5 73.5 Q177 79 181 90.5 Q185 102 188.5 119.5 Q192 137 192 163 L192 623 Q192 636 201 644.5 Q210 653 223 653 Q236 653 245 644.5 Q254 636 254 623 L254 162 Q253 52 199 15 Q186 6 173.5 2.5 Q161 -1 150 -1 Z " />
<glyph glyph-name="v" unicode="v" horiz-adv-x="278" d="M136 4 L135 4 Q124 4 115.5 11.5 Q107 19 105 31 L36 619 Q34 632 42 642 Q50 652 63 654 Q76 656 86 648 Q96 640 98 627 L139 272 L191 627 Q193 640 203 648 Q213 656 226 654 Q239 652 246.5 641.5 Q254 631 252 618 L166 30 Q164 19 155.5 11.5 Q147 4 136 4 Z " />
<glyph glyph-name="w" unicode="w" horiz-adv-x="375" d="M256 3 Q245 3 236.5 10 Q228 17 226 28 L188 227 L148 28 Q145 16 136 9 Q127 2 115 3 Q104 4 96 12 Q88 20 86 31 L36 605 Q34 618 42.5 627.5 Q51 637 64 639 Q77 640 86.5 631.5 Q96 623 97 610 L129 250 L158 394 Q160 405 168.5 412 Q177 419 188 419 L189 419 Q200 419 208.5 412 Q217 405 219 394 L243 267 L270 610 Q271 623 280.5 631.5 Q290 640 303 639 Q316 637 324.5 627.5 Q333 618 332 605 L287 31 Q286 20 277.5 12 Q269 4 258 3 L256 3 Z " />
<glyph glyph-name="x" unicode="x" horiz-adv-x="292" d="M261 41 Q264 28 257.5 17 Q251 6 239 3 Q236 2 231 2 Q208 2 201 25 L150 215 L103 25 Q101 14 92.5 8 Q84 2 73 2 Q68 2 66 3 Q53 6 46.5 17 Q40 28 43 40 L116 339 L43 611 Q40 624 46.5 635 Q53 646 65 649 Q78 652 89 646 Q100 640 103 627 L147 464 L190 642 Q193 654 204 661 Q215 668 228 665 Q240 662 247 651 Q254 640 251 627 L180 340 L261 41 Z " />
<glyph glyph-name="y" unicode="y" horiz-adv-x="264" d="M223 692 Q236 689 243 678.5 Q250 668 247 655 L162 235 L162 35 Q162 21 153 12.5 Q144 4 131 4 Q118 4 109 12.5 Q100 21 100 35 L100 236 L31 656 Q29 669 36.5 679.5 Q44 690 57 692 Q70 694 80 686.5 Q90 679 92 666 L134 410 L186 667 Q189 680 199.5 687 Q210 694 223 692 Z " />
<glyph glyph-name="z" unicode="z" horiz-adv-x="292" d="M230 1 L47 1 Q32 1 22 14 Q14 25 17 41 L188 599 L47 599 Q34 599 25 608 Q16 617 16 630 Q16 644 25 652.5 Q34 661 47 661 L230 661 Q246 661 254 649 Q264 636 259 621 L89 63 L230 63 Q243 63 252 54.5 Q261 46 261 32 Q261 19 252 10 Q243 1 230 1 Z " />
</font>
</svg>
