<?xml version="1.0" encoding="utf-8"?>
<!-- Generator: Adobe Illustrator 19.1.0, SVG Export Plug-In . SVG Version: 6.00 Build 0)  -->
<svg version="1.1" id="Layer_1" xmlns="http://www.w3.org/2000/svg" xmlns:xlink="http://www.w3.org/1999/xlink" x="0px" y="0px"
	 viewBox="-13 22.9 112.2 97.1" style="enable-background:new -13 22.9 112.2 97.1;" xml:space="preserve">
<style type="text/css">
	.st0{fill:#ECEBC1;}
	.st1{display:none;}
	.st2{display:inline;fill:#38475F;}
	.st3{font-family:'Dooodleista-Bold';}
	.st4{font-size:41.5643px;}
</style>
<path class="st0" d="M90.7,103.3l-1.5,0.1l0,0.2c0,2.2-1.8,4.1-4,4.2l-81.5,3.7l0,0l-0.2,0c-2.2,0-4.1-1.8-4.2-4L-3,56.3l0-0.2
	c0-2.2,1.8-4.1,4-4.2l81.5-3.7l0.2,0c2.2,0,4.1,1.8,4.2,4l2.3,51.1L90.7,103.3l1.5-0.1l-2.3-51.1c-0.2-3.8-3.4-6.8-7.2-6.8
	c-0.1,0-0.2,0-0.3,0L0.9,49C-3,49.2-6,52.3-6,56.2c0,0.1,0,0.2,0,0.3l2.3,51.1c0.2,3.8,3.4,6.8,7.2,6.8c0.1,0,0.2,0,0.3,0l0,0
	l81.5-3.7c3.8-0.2,6.8-3.4,6.8-7.2c0-0.1,0-0.2,0-0.3L90.7,103.3z"/>
<path class="st0" d="M85.7,101.9l-1,0l0,0.1c0,1-0.8,1.8-1.8,1.8l-78.1,3.6l0,0l-0.1,0c-1,0-1.8-0.8-1.8-1.8L0.7,57.4l0-0.1
	c0-1,0.8-1.8,1.8-1.8l78.1-3.6l0.1,0c1,0,1.8,0.8,1.8,1.8l2.2,48.3L85.7,101.9l1,0l-2.2-48.3c-0.1-2.1-1.8-3.7-3.8-3.7l-0.2,0
	L2.4,53.5c-2.1,0.1-3.7,1.8-3.7,3.8l0,0.2l2.2,48.3c0.1,2.1,1.8,3.7,3.8,3.7l0.2,0l78.1-3.6c2.1-0.1,3.7-1.8,3.7-3.8l0-0.2
	L85.7,101.9z"/>
<g class="st1">
	<path class="st2" d="M110.9,72.6c-0.2-4.5,2-7.1,6.4-7.3s6.8,2.3,7,6.7l0.7,14.6c0.2,4.5-2,7.1-6.4,7.3c-4.3,0.2-6.8-2.3-7-6.7
		L110.9,72.6z M116,87.2c0.1,2,1,2.7,2.4,2.7c1.4-0.1,2.2-0.9,2.2-2.9l-0.7-15.1c-0.1-2-1-2.7-2.4-2.7c-1.4,0.1-2.2,0.9-2.2,2.9
		L116,87.2z"/>
	<path class="st2" d="M140.1,71.4l0.2,3.6c0.2,4.5-1.8,7-6.2,7.2l-2.1,0.1l0.5,10.5l-4.4,0.2l-1.3-28l6.5-0.3
		C137.6,64.6,139.9,67,140.1,71.4z M131.3,68.9l0.4,9.5l2.1-0.1c1.4-0.1,2.1-0.7,2-2.7l-0.2-4.2c-0.1-2-0.9-2.6-2.3-2.5L131.3,68.9z
		"/>
	<path class="st2" d="M146.8,76l6-0.3l0.2,4l-6,0.3l0.4,8.2l7.6-0.3l0.2,4l-12,0.5l-1.3-28l12-0.5l0.2,4l-7.6,0.3L146.8,76z"/>
	<path class="st2" d="M160.8,71.3l0.9,20.3l-4,0.2l-1.3-28l5.5-0.3l5.3,16.5l-0.8-16.8l3.9-0.2l1.3,28l-4.5,0.2L160.8,71.3z"/>
</g>
<polyline class="st0" points="42.2,30.7 86.4,48.9 87.1,47 42.9,28.9 "/>
<polyline class="st0" points="-1.2,52.2 38.6,30.4 37.6,28.7 -2.1,50.5 "/>
<path class="st0" d="M43.2,28.9h-1c0,1.1-0.9,2-2,2c-1.1,0-2-0.9-2-2c0-1.1,0.9-2,2-2c1.1,0,2,0.9,2,2H43.2h1c0-2.2-1.8-4-4-4
	s-4,1.8-4,4s1.8,4,4,4s4-1.8,4-4H43.2z"/>
<text transform="matrix(0.9989 -4.757000e-02 4.757000e-02 0.9989 9.3128 95.8718)" class="st0 st3 st4">OUVERT</text>
</svg>
