<?xml version="1.0" encoding="utf-8"?>
<!-- Generator: Adobe Illustrator 19.0.0, SVG Export Plug-In . SVG Version: 6.00 Build 0)  -->
<svg version="1.1" id="Layer_1" xmlns="http://www.w3.org/2000/svg" xmlns:xlink="http://www.w3.org/1999/xlink" x="0px" y="0px"
	 viewBox="-13 22.9 112.2 97.1" enable-background="new -13 22.9 112.2 97.1" xml:space="preserve">
<path fill="#ECEBC1" d="M90.7,103.3l-1.5,0.1l0,0.2c0,2.2-1.8,4.1-4,4.2l-81.5,3.7l0,0l-0.2,0c-2.2,0-4.1-1.8-4.2-4L-3,56.3l0-0.2
	c0-2.2,1.8-4.1,4-4.2l81.5-3.7l0.2,0c2.2,0,4.1,1.8,4.2,4l2.3,51.1L90.7,103.3l1.5-0.1l-2.3-51.1c-0.2-3.8-3.4-6.8-7.2-6.8
	c-0.1,0-0.2,0-0.3,0L0.9,49C-3,49.2-6,52.3-6,56.2c0,0.1,0,0.2,0,0.3l2.3,51.1c0.2,3.8,3.4,6.8,7.2,6.8c0.1,0,0.2,0,0.3,0l0,0
	l81.5-3.7c3.8-0.2,6.8-3.4,6.8-7.2c0-0.1,0-0.2,0-0.3L90.7,103.3z"/>
<path fill="#ECEBC1" d="M85.7,101.9l-1,0l0,0.1c0,1-0.8,1.8-1.8,1.8l-78.1,3.6l0,0l-0.1,0c-1,0-1.8-0.8-1.8-1.8L0.7,57.4l0-0.1
	c0-1,0.8-1.8,1.8-1.8l78.1-3.6l0.1,0c1,0,1.8,0.8,1.8,1.8l2.2,48.3L85.7,101.9l1,0l-2.2-48.3c-0.1-2.1-1.8-3.7-3.8-3.7l-0.2,0
	L2.4,53.5c-2.1,0.1-3.7,1.8-3.7,3.8l0,0.2l2.2,48.3c0.1,2.1,1.8,3.7,3.8,3.7l0.2,0l78.1-3.6c2.1-0.1,3.7-1.8,3.7-3.8l0-0.2
	L85.7,101.9z"/>
<g display="none">
	<path display="inline" fill="#38475F" d="M110.9,72.6c-0.2-4.5,2-7.1,6.4-7.3s6.8,2.3,7,6.7l0.7,14.6c0.2,4.5-2,7.1-6.4,7.3
		c-4.3,0.2-6.8-2.3-7-6.7L110.9,72.6z M116,87.2c0.1,2,1,2.7,2.4,2.7c1.4-0.1,2.2-0.9,2.2-2.9l-0.7-15.1c-0.1-2-1-2.7-2.4-2.7
		c-1.4,0.1-2.2,0.9-2.2,2.9L116,87.2z"/>
	<path display="inline" fill="#38475F" d="M140.1,71.4l0.2,3.6c0.2,4.5-1.8,7-6.2,7.2l-2.1,0.1l0.5,10.5l-4.4,0.2l-1.3-28l6.5-0.3
		C137.6,64.6,139.9,67,140.1,71.4z M131.3,68.9l0.4,9.5l2.1-0.1c1.4-0.1,2.1-0.7,2-2.7l-0.2-4.2c-0.1-2-0.9-2.6-2.3-2.5L131.3,68.9z
		"/>
	<path display="inline" fill="#38475F" d="M146.8,76l6-0.3l0.2,4l-6,0.3l0.4,8.2l7.6-0.3l0.2,4l-12,0.5l-1.3-28l12-0.5l0.2,4
		l-7.6,0.3L146.8,76z"/>
	<path display="inline" fill="#38475F" d="M160.8,71.3l0.9,20.3l-4,0.2l-1.3-28l5.5-0.3l5.3,16.5l-0.8-16.8l3.9-0.2l1.3,28l-4.5,0.2
		L160.8,71.3z"/>
</g>
<polyline fill="#ECEBC1" points="42.2,30.7 86.4,48.9 87.1,47 42.9,28.9 "/>
<polyline fill="#ECEBC1" points="-1.2,52.2 38.6,30.4 37.6,28.7 -2.1,50.5 "/>
<path fill="#ECEBC1" d="M43.2,28.9h-1c0,1.1-0.9,2-2,2c-1.1,0-2-0.9-2-2c0-1.1,0.9-2,2-2c1.1,0,2,0.9,2,2H43.2h1c0-2.2-1.8-4-4-4
	s-4,1.8-4,4s1.8,4,4,4s4-1.8,4-4H43.2z"/>
<g>
	<path fill="#ECEBC1" d="M15.4,95.6c-0.2,0-0.3,0-0.4,0c-0.8,0-1.5-0.2-2-0.4c-0.6-0.3-1-0.6-1.4-1c-0.4-0.4-0.7-0.9-0.9-1.4
		c-0.2-0.5-0.3-1-0.3-1.6L9.5,73.6c0-0.2,0-0.4,0.1-0.6c-0.2-0.3-0.2-0.6-0.2-0.9c0,0,0.1-0.2,0.2-0.5c0.1-0.3,0.3-0.7,0.6-1.1
		c0.3-0.4,0.8-0.8,1.4-1.1c0.6-0.3,1.4-0.6,2.4-0.6c1.3-0.1,2.3,0.2,3.1,0.9c0.3,0.3,0.6,0.6,0.8,1c0.2,0.4,0.3,0.7,0.4,1.1
		c0.1,0.3,0.2,0.7,0.2,0.9c0,0.3,0,0.5,0.1,0.6l0.9,17.9l0,0.1c0,0.4-0.1,0.9-0.3,1.3c-0.2,0.5-0.4,0.9-0.7,1.3
		c-0.3,0.4-0.7,0.8-1.2,1C16.7,95.4,16.1,95.6,15.4,95.6z M11.8,72.9c0.1,0.2,0.2,0.4,0.2,0.6L12.9,91c0,0.2,0,0.4,0.1,0.6
		c0.1,0.2,0.2,0.4,0.3,0.6c0.2,0.2,0.4,0.4,0.6,0.5c0.3,0.1,0.6,0.2,1.1,0.2c0.4,0,0.7,0,0.9-0.1c0.2-0.1,0.4-0.3,0.5-0.5
		c0.1-0.2,0.2-0.4,0.3-0.6c0-0.2,0.1-0.3,0.1-0.4L16,73.5c0-0.2,0-0.5-0.1-1c-0.1-0.4-0.2-0.7-0.5-1c-0.1-0.1-0.2-0.1-0.3-0.2
		c-0.2-0.1-0.4-0.1-0.9,0c-0.5,0-0.9,0.1-1.2,0.2c-0.3,0.1-0.5,0.3-0.7,0.4c-0.2,0.1-0.3,0.3-0.3,0.4C12,72.5,12,72.6,12,72.7
		c0,0.1,0,0.1-0.1,0.1C11.9,72.8,11.9,72.9,11.8,72.9z"/>
	<path fill="#ECEBC1" d="M26.5,95.1c-0.2,0-0.4,0-0.5,0c-0.1,0-0.3,0-0.4-0.1c-1.2,0-2.2-0.5-3-1.3c-0.4-0.4-0.8-0.9-1-1.5
		c-0.2-0.6-0.4-1.1-0.5-1.6c-0.1-0.5-0.2-1-0.2-1.3s0-0.7,0-0.8L20,69.4c0-0.4,0.1-0.7,0.3-0.9c0.2-0.2,0.5-0.4,0.9-0.4
		s0.7,0.1,0.9,0.3s0.4,0.5,0.4,0.9l0.9,19.1l0,0.1c0,0.2,0,0.4,0,0.7c0,0.3,0.1,0.6,0.1,0.9c0.1,0.3,0.2,0.7,0.3,1
		c0.1,0.3,0.3,0.6,0.5,0.8c0.3,0.3,0.8,0.5,1.3,0.5c0.1,0,0.2,0,0.4,0.1c0,0,0.1,0,0.3,0c0.2,0,0.4-0.1,0.6-0.2
		c0.1-0.1,0.2-0.2,0.3-0.3c0.1-0.2,0.2-0.4,0.3-0.7c0.1-0.3,0.2-0.7,0.3-1.2c0.1-0.5,0.1-1.1,0.1-1.8L27,69.1c0-0.4,0.1-0.7,0.3-0.9
		c0.2-0.2,0.5-0.4,0.9-0.4c0.4,0,0.7,0.1,0.9,0.3c0.3,0.2,0.4,0.5,0.4,0.9l0.9,19.1c0.1,3-0.5,5.1-2,6.2c-0.3,0.3-0.7,0.5-1,0.6
		C27.1,95,26.8,95.1,26.5,95.1z"/>
	<path fill="#ECEBC1" d="M38,94.3L38,94.3c-0.3,0-0.6-0.1-0.9-0.3c-0.2-0.2-0.4-0.5-0.5-0.8l-4-24.3c-0.1-0.4,0-0.7,0.2-1
		c0.2-0.3,0.5-0.5,0.8-0.5c0.4-0.1,0.7,0,1,0.2c0.3,0.2,0.5,0.5,0.5,0.8l2.4,14.7l1.5-14.8c0-0.4,0.2-0.7,0.5-0.9
		c0.3-0.2,0.6-0.3,0.9-0.3c0.4,0,0.7,0.2,0.9,0.5c0.2,0.3,0.3,0.6,0.3,1l-2.4,24.6c0,0.3-0.2,0.6-0.4,0.8
		C38.6,94.2,38.3,94.3,38,94.3z"/>
	<path fill="#ECEBC1" d="M53.7,91.2c0.4,0,0.7,0.1,1,0.3c0.2,0.2,0.4,0.5,0.4,0.9c0,0.4-0.1,0.7-0.3,0.9c-0.2,0.3-0.5,0.4-0.9,0.4
		l-6.4,0.3c-0.4,0-0.7-0.1-1-0.3c-0.2-0.2-0.4-0.5-0.4-0.9l-0.5-11c-0.3,0-0.5-0.2-0.7-0.4c-0.2-0.2-0.3-0.5-0.3-0.8
		s0.1-0.6,0.2-0.8c0.2-0.2,0.4-0.4,0.7-0.5L45,68.9c0-0.4,0.1-0.7,0.3-0.9c0.2-0.3,0.5-0.4,0.9-0.4l6.4-0.3c0.4,0,0.7,0.1,1,0.3
		c0.2,0.2,0.4,0.5,0.4,0.9c0,0.4-0.1,0.7-0.3,0.9c-0.2,0.3-0.5,0.4-0.9,0.4L47.7,70l0.4,9.2l2.8-0.1c0.4,0,0.7,0.1,0.9,0.3
		c0.3,0.2,0.4,0.5,0.4,0.9c0,0.4-0.1,0.7-0.3,0.9c-0.2,0.3-0.5,0.4-0.9,0.4l-2.8,0.1l0.5,9.7L53.7,91.2z"/>
	<path fill="#ECEBC1" d="M64,78.6c0.3,0.3,0.6,0.7,0.8,1.2c0.2,0.5,0.4,1,0.5,1.7l0,0.1l0.5,10.3c0,0.4-0.1,0.7-0.3,0.9
		c-0.2,0.3-0.5,0.4-0.9,0.4c-0.4,0-0.7-0.1-0.9-0.3c-0.3-0.2-0.4-0.5-0.4-0.9l-0.5-10.2c-0.1-0.5-0.2-1-0.5-1.2
		c-0.2-0.3-0.4-0.4-0.6-0.5c-0.2,0.1-0.5,0.1-0.8,0.2l-0.2,0l-1.9,0.1l0.6,11.9c0,0.4-0.1,0.7-0.3,0.9c-0.2,0.3-0.5,0.4-0.9,0.4
		c-0.4,0-0.7-0.1-1-0.3c-0.2-0.2-0.4-0.5-0.4-0.9l-0.6-12c-0.6-0.1-0.9-0.5-0.9-1.2c0-0.3,0.1-0.5,0.2-0.8s0.3-0.4,0.6-0.5
		l-0.5-10.6c0-0.4,0.1-0.7,0.3-0.9c0.2-0.3,0.5-0.4,0.9-0.4l3-0.1l0.1,0c0.4,0,0.8,0.2,1.4,0.4c0.5,0.2,1,0.6,1.5,1.1
		c0.5,0.5,0.9,1.2,1.3,2c0.4,0.8,0.6,1.9,0.7,3.2l0.2,3.8c0,0.2,0,0.3,0,0.4c0,0-0.1,0.2-0.2,0.6S64.4,78.1,64,78.6z M58.8,77.8
		l1.8-0.1c0.1,0,0.2-0.1,0.3-0.1s0.2,0,0.3-0.1l0.1,0c0.4-0.2,0.7-0.4,0.9-0.7c0.2-0.3,0.3-0.5,0.4-0.6l-0.2-3.5
		c0-0.9-0.2-1.6-0.4-2.2c-0.2-0.5-0.5-1-0.7-1.3c-0.3-0.3-0.5-0.5-0.8-0.6c-0.2-0.1-0.4-0.1-0.5-0.2l-1.6,0.1L58.8,77.8z"/>
	<path fill="#ECEBC1" d="M76,65.4c0.4,0,0.7,0.1,0.9,0.3s0.4,0.5,0.4,0.9c0,0.4-0.1,0.7-0.3,1c-0.2,0.2-0.5,0.4-0.9,0.4l-2.7,0.1
		l1.1,23.5c0,0.4-0.1,0.7-0.3,0.9c-0.2,0.3-0.5,0.4-0.9,0.4c-0.4,0-0.7-0.1-0.9-0.3c-0.3-0.2-0.4-0.5-0.4-0.9l-1.1-23.5l-2.7,0.1
		c-0.4,0-0.7-0.1-0.9-0.3c-0.3-0.2-0.4-0.5-0.4-0.9c0-0.4,0.1-0.7,0.3-0.9s0.5-0.4,0.9-0.4L76,65.4z"/>
</g>
</svg>
