<?xml version="1.0" encoding="utf-8"?>
<!-- Generator: Adobe Illustrator 19.1.0, SVG Export Plug-In . SVG Version: 6.00 Build 0)  -->
<svg version="1.1" id="Calque_1" xmlns="http://www.w3.org/2000/svg" xmlns:xlink="http://www.w3.org/1999/xlink" x="0px" y="0px"
	 viewBox="0 0 500 500" style="enable-background:new 0 0 500 500;" xml:space="preserve">
<style type="text/css">
	.st0{fill:#38465F;}
	.st1{fill:#EBE7BF;}
</style>
<g>
	<circle class="st0" cx="250" cy="249.4" r="229.7"/>
	<path class="st1" d="M250,482.5c-128.6,0-233.2-104.6-233.2-233.2C16.8,120.8,121.4,16.2,250,16.2s233.2,104.6,233.2,233.2
		C483.2,377.9,378.6,482.5,250,482.5z M250,23.2c-124.7,0-226.1,101.4-226.1,226.1C23.9,374,125.3,475.5,250,475.5
		S476.2,374,476.2,249.4C476.2,124.7,374.7,23.2,250,23.2z"/>
</g>
<g>
	<circle class="st0" cx="250" cy="249.4" r="220.4"/>
	<path class="st1" d="M250,470.9c-122.1,0-221.5-99.4-221.5-221.5c0-122.1,99.4-221.5,221.5-221.5s221.5,99.4,221.5,221.5
		C471.5,371.5,372.2,470.9,250,470.9z M250,30.2c-120.9,0-219.2,98.3-219.2,219.2S129.2,468.5,250,468.5s219.2-98.3,219.2-219.2
		S370.9,30.2,250,30.2z"/>
</g>
<g>
	<path class="st1" d="M263.1,196.9h-26.6c-0.2,0-0.4-0.2-0.4-0.4v-4.2c0-0.2,0.2-0.4,0.4-0.4h26.6c0.2,0,0.4,0.2,0.4,0.4v4.2
		C263.4,196.7,263.3,196.9,263.1,196.9z"/>
	<path class="st1" d="M201.7,196.9h-26.6c-0.2,0-0.4-0.2-0.4-0.4v-4.2c0-0.2,0.2-0.4,0.4-0.4h26.6c0.2,0,0.4,0.2,0.4,0.4v4.2
		C202.1,196.7,201.9,196.9,201.7,196.9z"/>
	<path class="st1" d="M179.1,196.7c-0.2,0,0.9,0,2.8,0C181.1,196.6,180.2,196.6,179.1,196.7z"/>
	<g>
		<path class="st1" d="M335.5,222.6c6.9,0.3,3.9-5,4.7-7.8c0-8.5-0.2-9-4.4-9c-5-0.1-8.5,3.4-8.5,8.4
			C327.4,219,330.8,222.4,335.5,222.6z M334.9,209.6c0.8,2.4,1.7,3.7,1.5,4.8c-0.2,1-1.6,1.8-2.4,2.7c-0.8-1.1-2.2-2.2-2.2-3.3
			C331.8,212.7,333.3,211.7,334.9,209.6z"/>
		<path class="st1" d="M335.6,229.1c-4.2,0.6-6.9-0.6-8.5-4.6c-3.3-8.4-6.9-16.7-10.4-25.1c-4.1-9.6-2.4-8.1-12.1-8
			c-2.7,0-7.4-2-7.5,2.5c-0.1,4.4,4.7,2.6,7.4,2.8c4.8,0.4,9.9,5.8,9.1,10.3c-0.2,1.1-2,2.6-3.1,2.6c-15.7,0.2-31.4,0.2-47.2,0
			c-3.8,0-7.7-5.1-7.8-9.6c-0.1-4.6,3.7-2.6,5.9-3.4c1.2-0.4-24.5-0.7-23.4,0c0.8,0.5,2,0.3,3,0.1c5.4-0.8,8.2,1.9,9.9,6.7
			c1.9,5.2,1.3,6.3-4.5,6.3c-7,0-14,0-21,0c-7.5,0-15,0.1-22.6,0c-4.7-0.1-9.9-6-9.1-10.4c0.2-1,1.6-2,2.7-2.4
			c1-0.4,2.6,0.2,3.5-0.3c0.9-0.5-12.2-0.1-18.2,0.1c3.9,0.4,6.1,3.1,8,7.2c2.2,4.9,2.1,8.8-1.4,13c-3.1,3.6-5.4,7.9-8,11.9
			c-2,3-4.3,3.7-7.9,2.6c-4.5-1.5-9.2-2.9-13.9-3c-24.9-0.7-44,21.2-40.3,45.8c2.9,19.1,20.8,34,40.1,33.4
			c18-0.6,32.3-12.3,37.5-30.2c0.7-2.4,2.6-5.4,4.7-6.4c3.1-1.5,6,0.5,8.4,3.3c6.4,7.7,13.6,7.5,20.3,0.2c1.8-2,5.1-3.5,7.8-3.6
			c8.5-0.5,17.1-0.5,25.6,0c2.7,0.1,5.9,1.7,7.8,3.6c5.3,5.4,10.4,7,15.9,4c5.4-2.9,7.2-8.5,5.4-15.5c-0.5-2-1-4.8,0-6.3
			c7.7-12.1,15.7-24,23.8-35.9c0.5-0.8,3-1.2,3.7-0.7c4.7,3.7,4.6,12.2,0,15.7c-15.4,11.9-20.6,30.7-13.1,48
			c7.3,16.9,25.1,26.3,44.2,22.7c18.1-3.3,32.5-19.1,31.7-39.7C381,241.7,360.5,225.5,335.6,229.1z M267.7,215.2
			c6.5,0.1,13,0,19.5,0c6.2,0,12.5,0,18.7,0l-39,12.6c-1-2.4-2-4.8-3-7.2C262.4,216.8,263.6,215.1,267.7,215.2z M206.4,215.2
			c4.8,0.2,9.6,0.1,14.4,0c8.1,0,16.1,0,24.2,0c3.9,0,12.6,3.1,13.8,6.8c1,2.5,2.1,4.9,3.1,7.4l-49.3,15.9
			c-3.5-8.2-6.8-16.4-10.2-24.6C200.8,217,201.8,215,206.4,215.2z M185.2,231c2.3-3.1,4.3-6.5,6.5-9.8c1.6-2.3,3.6-3.1,5,0
			c3.7,8.5,7.2,17.1,10.7,25.7l-14,4.5c-1.5-3.6-3.7-7.1-7.4-11.4C183.3,236.7,182.7,234.4,185.2,231z M176.6,244.5
			c0.7-1,3.4-4,6.1-1c2.9,3.1,5,6.3,6.5,9.3l-23.2,7.5c0,0,0-0.1,0.1-0.1C169.4,254.8,172.8,249.5,176.6,244.5z M190.3,278
			c-6.9,22.4-33.7,31.4-52.7,17.8c-12-8.6-17.2-24.1-12.8-38.1c4.6-14.5,17.5-24,32.8-24.6c5.9,0.3,7.5,0.2,11.2,1.9
			c3.4,1.4,4.8,3.9,2.7,7.2c-2.8,4.3-5.4,8.8-8.6,12.7c-1.6,1.9-5.6,9.3-8,10.3c-3.7,1.5-0.9,6.9,2.8,5.1c4.9-0.5,12.4,0.1,16.4,0.4
			c3.7,0.2,7.5,0,11.3,0.1C190.9,270.7,192,272.4,190.3,278z M186.7,265.1c-2.9,0-5.8,0-8.7,0c0,0,0,0,0-0.1c-3.1,0-6.1,0.1-9.2,0
			c-0.1,0-0.1,0-0.2,0l22.5-7.3c0.2,0.9,0.4,1.7,0.5,2.5C192.1,263.4,190,265.1,186.7,265.1z M203.7,265.1c-4.8,0.7-6.8-1.9-7.8-6
			c-0.2-0.9-0.4-1.8-0.7-2.6l14.3-4.6c0.3,0.8,0.6,1.6,1,2.4c0.3,0.6,0.2,1.3,0.3,1.8C210.9,260.2,207.4,264.5,203.7,265.1z
			 M219,274.4c-3.7-0.1-7.1-3.4-6.6-6.9c0.6-3.7,2.7-6.2,6.8-6.1c4,0.1,6.2,2.5,6.6,6.4C226.1,271.4,222.8,274.5,219,274.4z
			 M263.9,265.1c-4.8,0.2-9.5,0-14.3,0c-4.6,0-9.2,0.1-13.8,0c-2.1-0.1-3-0.5-4.2-1.4c-0.9-0.7-1.5-1.5-2.2-2.3
			c-1.1-1.3-3-3.2-5.8-3.9c-4.6-1.6-6.1-0.9-8.4-6.1c-0.2-0.4-0.3-0.8-0.5-1.2l49.3-15.9c2.7,6.4,5.4,12.8,7.9,19.3
			C274,259,269.8,264.9,263.9,265.1z M280.8,274.3c-4.1-0.1-6.3-2.4-6.5-6.4c-0.2-3.9,2.8-6.8,6.8-6.6c4.1,0.2,6,2.8,6.4,6.6
			C286.9,271.8,285,274.4,280.8,274.3z M287.8,252.5c-3.5,5.1-8.5,4.5-11-1.2c-2.7-6.1-5.3-12.3-7.8-18.5l40.8-13.2
			c-0.1,0.2-0.2,0.4-0.3,0.6C302.2,230.9,295.1,241.8,287.8,252.5z M345.6,302c-19.6,1.1-35.4-12-37.2-30.9
			c-1.2-12.4,3.3-22.4,12.8-30.2c4-3.3,5.9-2.7,8.1,2.1c1.6,3.6,9.8,24.9,11.6,28.4c1.8,3.6,6.4,4.2,2.5-7.4
			c-0.3-0.8-7.7-19.2-8-19.9c-3.8-9.2-2.9-10.5,7.2-10.5c18,0,33.6,14.8,34.1,32.2C377.2,284.8,363.3,301.1,345.6,302z"/>
	</g>
</g>
<g>
	<path class="st1" d="M108.5,189c-0.8-0.6-1.2-1.7-1.3-3.3c-0.1-1.6,0.5-3.3,1.6-4.9c1.4-1.9,2.8-3.3,4.2-4.1
		c-0.4-5.2-2.9-11.2-7.4-18c-2.3,3.2-5.2,5.1-8.5,5.5c-3.4,0.5-6.5-0.3-9.3-2.4c-1.4-1-2.6-2.2-3.5-3.7c-0.9-1.4-1.5-2.9-1.9-4.3
		c-0.3-1.4-0.4-2.8-0.2-4.2c0.2-1.4,0.6-2.5,1.3-3.4c0.7-0.9,1.4-1.6,2.1-2c0.8-0.5,1.5-0.7,2.3-0.7c0.7,0,1.4,0.1,2.1,0.3
		c0.6,0.2,1.3,0.5,1.8,0.9c1,0.7,1.7,1.6,2,2.7c0.4,1.1,0.2,2-0.3,2.8c-0.5,0.7-1.1,1.1-2,1.2c-0.8,0.1-1.7-0.1-2.6-0.8
		c-0.6-0.4-1-0.9-1.3-1.4c-0.3-0.5-0.4-0.9-0.3-1.2c0-0.1,0-0.2,0-0.4c0-0.1-0.1-0.2-0.2-0.3c-0.1-0.1-0.4,0.1-0.7,0.5
		c-1,1.4-1.3,3.3-0.7,5.6c0.5,2.3,1.8,4.2,3.8,5.7c1.9,1.4,4.1,1.8,6.6,1.3c2.5-0.5,4.7-2,6.6-4.6l0.6-0.8c-2.4-3.9-4.4-7.5-5.9-11
		c-1.5-3.5-2.4-6.5-2.9-9.1c-0.4-2.6-0.5-4.9-0.3-6.8c0.3-1.9,0.9-3.5,1.8-4.8c0.8-1.1,1.8-1.6,3.1-1.6c1.3,0,2.6,0.5,3.9,1.4
		c1.3,0.9,2.5,2.2,3.6,3.7c1.1,1.6,2,3.4,2.8,5.5c0.7,2.1,1.3,4.3,1.6,6.6c0.3,2.3,0.3,4.8,0,7.5c-0.3,2.7-1,5.2-2,7.7
		c2.3,4.3,4.1,8.1,5.3,11.5c1.2,3.4,1.8,6.4,1.6,9.2c0.2-0.2,0.8-0.6,1.7-1.4c0.9-0.8,1.6-1.3,1.9-1.6c0.3-0.3,0.9-0.7,1.5-1.3
		c0.7-0.6,1.2-1.1,1.6-1.5c0.4-0.4,0.7-0.8,1-1.2c1-1.4,1.9-2.9,2.6-4.3c0.7-1.4,1.1-2.7,1.4-3.8c0.2-1.1,0.4-2.2,0.4-3.2
		c0-1,0-1.9-0.2-2.6c-0.2-0.7-0.3-1.4-0.5-1.9s-0.3-1-0.5-1.2c-0.1-0.3-0.2-0.4-0.2-0.5c0.1-0.1,0.3-0.1,0.7,0
		c0.4,0.1,0.8,0.3,1.2,0.6c0.5,0.3,1,1,1.4,1.8c0.5,0.9,0.9,1.9,1.1,3.2c0.3,1.3,0.5,2.6,0.5,4c0,1.4-0.1,2.8-0.6,4.4
		c-0.4,1.5-1.1,2.9-2,4.2c-1,1.4-2.3,2.8-3.8,4.1c-1.5,1.3-2.8,2.3-4,3c-1.2,0.7-2.3,1.4-3.4,2.1c-1.1,0.7-1.7,1.3-2.1,1.7
		c0.1,1.2-0.2,2.7-0.9,4.5c-0.6,1.7-1.3,3.1-2.1,4.2c-0.6,0.8-1.3,1.3-2.2,1.5C109.9,189.6,109.2,189.5,108.5,189z M106.2,149.9
		c1.1-2.7,1.5-5.7,1.4-9c-0.1-3.3-0.7-6.4-1.8-9.1c-1.1-2.8-2.5-4.7-4.2-6c-0.6-0.5-1.2-0.7-1.8-0.6c-0.6,0.1-1.1,0.4-1.4,0.9
		c-0.6,0.8-0.8,2.1-0.6,3.8c0.2,1.7,0.7,3.6,1.5,5.8c0.8,2.2,1.8,4.5,3,6.8C103.3,144.8,104.7,147.3,106.2,149.9z"/>
	<path class="st1" d="M130.6,151.1c-1.3-1.3-2.5-3.2-3.4-5.6c-1-2.4-1.6-4.8-2-7.4c-0.4-2.5-0.3-5,0.2-7.4c0.5-2.4,1.3-4.3,2.7-5.6
		c0.7-0.7,1.4-1.1,2.2-1.2c0.8-0.1,1.6,0,2.4,0.3c-0.4-2.1-0.1-3.7,0.9-4.7c0.6-0.6,1.2-1,1.9-1.1c0.6-0.1,1.1-0.1,1.4,0.2l-0.1,0.4
		c-0.1,0.2-0.1,0.7-0.1,1.6s0.2,1.8,0.6,3.1c0.2,0.8,0.9,2.9,2.1,6.4c1.1,3.5,1.9,5.6,2.1,6.3c0.6,1.5,1,2.4,1.5,2.9
		c0.7,0.7,1.3,0.8,1.8,0.2c2.4-2.4,2.3-8.7-0.2-19.1c0-0.1,0-0.2,0-0.2c0,0,0.1,0,0.3,0c0.2,0.1,0.4,0.2,0.7,0.4
		c0.3,0.2,0.6,0.5,1,0.9c0.5,0.5,1,1.9,1.4,4.2c0.8,3.9,1,7.5,0.7,10.9c-0.4,3.4-1.4,6-3.2,7.7c-0.9,0.9-1.8,1.3-2.8,1.3
		c-0.9,0-1.8-0.4-2.6-1.2c0,1.5-0.1,2.9-0.5,4.3c-0.4,1.3-0.9,2.4-1.7,3.1c-1.1,1.1-2.4,1.6-3.7,1.4
		C132.9,152.9,131.7,152.2,130.6,151.1z M132.8,145.9c1.6,1.6,2.9,1.9,3.9,0.9c0.3-0.3,0.6-0.8,0.8-1.5c0.3-0.7,0.4-1.7,0.4-3.1
		c0-1.3-0.2-2.7-0.7-4.1c-0.2-0.6-0.7-2.2-1.6-4.6c-0.8-2.5-1.4-4.1-1.7-4.9c-0.2-0.5-0.4-0.9-0.7-1.1c-0.5-0.5-1.1-0.8-1.8-0.9
		c-0.7-0.1-1.3,0.1-1.8,0.6c-0.9,0.9-1.3,2.7-1.2,5.3c0.1,2.6,0.6,5.3,1.5,7.9C130.8,143,131.8,144.8,132.8,145.9z"/>
	<path class="st1" d="M166.7,94.3c-1.2-2.5-1.9-5.4-2-8.4c-0.1-3.1,0.3-6,1.3-8.9c0.9-2.9,2.5-5.6,4.7-8.2c2.2-2.6,4.8-4.6,7.8-6.1
		c2.1-1,4.2-1.7,6.5-2c2.2-0.3,4.5-0.3,6.6,0.2s4.2,1.4,6.2,2.9c1.9,1.5,3.5,3.5,4.7,6c0.9,1.9,1.4,3.8,1.6,5.9
		c0.1,2.1-0.1,4-0.6,5.7c-0.6,1.7-1.4,3.3-2.4,4.7c-1,1.3-2.2,2.3-3.6,3c0,0-0.1,0-0.1,0.1c-1,0.4-1.8,0.7-2.6,0.8
		c-0.8,0.1-1.4,0-2-0.2c-0.5-0.2-0.9-0.5-1.2-0.7c-0.3-0.2-0.6-0.5-0.9-0.9c-0.1-0.1-0.2-0.3-0.3-0.4c-0.3-0.6-0.3-1.4,0-2.3
		c0.2-0.6,0.4-0.8,0.6-0.7c0.2,0.5,0.8,0.9,1.7,1.3c0.9,0.4,1.8,0.4,2.8-0.1c1.2-0.6,2.1-1.7,2.6-3.4c0.6-1.7,0.7-3.5,0.6-5.6
		s-0.7-3.9-1.5-5.7c-1.6-3.3-4-5.5-7-6.5c-3.1-1-6.4-0.7-10.1,1.1c-2.3,1.1-4.3,2.5-6,4.3c-1.7,1.8-3,3.6-3.9,5.6
		c-0.9,2-1.5,4-1.9,6c-0.4,2.1-0.5,4-0.3,5.8c0.2,1.8,0.6,3.4,1.3,4.7c0.4,0.7,0.7,1.4,1.1,2c0.4,0.6,0.9,1.2,1.4,1.7
		c0.5,0.5,1.1,0.9,1.7,1.1c0.6,0.2,1.2,0.1,1.8-0.2c0.1-0.1,0.2-0.2,0.1-0.3c0-0.2-0.1-0.3-0.3-0.3c-0.7-0.3-1.2-0.9-1.7-1.8
		c-0.4-0.7-0.4-1.4-0.2-2.1c0.2-0.7,0.6-1.1,1.2-1.4c0.9-0.5,1.9-0.5,2.7-0.1c0.9,0.4,1.6,1.2,2.1,2.2c0.6,1.3,0.7,2.6,0.3,3.9
		c-0.4,1.2-1.3,2.2-2.8,2.9c0,0-0.1,0-0.1,0.1c-1.7,0.8-3.4,0.7-5.2-0.3C169.6,98.9,168,97,166.7,94.3z M169.4,118.7
		c-0.7-1.4-0.9-2.7-0.6-4c0.3-1.2,0.9-2,1.8-2.5c0.1,0,0.1,0,0.1-0.1c0.7-0.3,1.4-0.4,2.1-0.2s1.2,0.5,1.5,0.8
		c0.4,0.4,0.7,0.8,0.9,1.3c0.3,0.7,0.4,1.4,0.3,2.1c-0.2,0.8-0.5,1.3-1.1,1.6c-0.2,0.1-0.3,0.1-0.5,0.1c-0.2,0-0.3,0-0.4,0.1
		c-0.1,0-0.1,0.1-0.1,0.2c0,0.1,0,0.2,0,0.3c0.2,0.4,0.6,0.6,1.3,0.8c0.7,0.1,1.4,0,2.1-0.3c1.2-0.6,2.2-1.4,3-2.4
		c0.8-1,1.4-2.1,1.8-3.3c0.4-1.2,0.7-2.5,0.9-4c0.2-1.5,0.3-3,0.2-4.5c0-1.5-0.1-3.1-0.3-4.8c-0.1-1.7-0.3-3.3-0.5-4.8
		c-0.2-1.5-0.3-3-0.5-4.6c-0.1-1.6-0.2-3-0.2-4.1c0-1.7,0.1-3.4,0.4-5s0.7-3.3,1.2-4.9c0.6-1.6,1.3-3.1,2.3-4.4s2.2-2.3,3.5-2.9
		c0.5-0.2,0.8-0.2,0.9,0c0.1,0.1,0.1,0.2,0,0.4c-1.1,2.3-1.9,4.7-2.3,7.1c-0.4,2.4-0.6,5.2-0.4,8.5c0.4,6.7,0.7,10.9,0.7,12.8
		c0.1,7.1-0.6,12.5-2.3,16.3c-1.5,3.5-3.9,6.1-7.2,7.7c-1.9,0.9-3.7,1.1-5.3,0.4C171.5,121.8,170.2,120.6,169.4,118.7z"/>
	<path class="st1" d="M207.3,98.9c-0.5-1.8-0.6-4-0.2-6.6c0.3-2.6,1-5,1.9-7.4c0.9-2.4,2.2-4.5,3.8-6.4c1.6-1.9,3.2-3.1,5-3.6
		c1-0.3,1.9-0.1,2.6,0.4c0.8,0.5,1.3,1.4,1.6,2.5c0.3,1.2,0.3,2.5-0.1,3.9c-0.4,1.4-1.1,2.7-2,4c-0.9,1.2-2.1,2.4-3.5,3.4
		c-1.3,0.9-2.6,1.5-4,1.9c-0.2,0.1-0.5,0.1-0.7,0.2c-0.2,1.8-0.2,3.3,0.2,4.6c0.6,2.3,2,3.2,4.1,2.6c1.4-0.4,2.7-1.2,4-2.6
		c1.3-1.4,2.4-2.9,3.2-4.5c0.9-1.7,1.6-3.3,2.3-4.9c0.7-1.6,1.1-3,1.4-4.1l0.5-1.6c0-0.2,0.2-0.2,0.6,0.1c0.4,0.3,0.7,0.7,0.8,1.2
		c0.1,0.5,0.1,1.3-0.1,2.3c-0.6,2.1-1.3,4.2-2.2,6.1c-0.9,1.9-1.9,3.8-3.1,5.5c-1.2,1.7-2.6,3.2-4.2,4.5s-3.3,2.1-5.1,2.6
		c-1.5,0.4-2.9,0.3-4.1-0.4C208.7,101.9,207.8,100.7,207.3,98.9z M212.2,88.4c1.5-0.4,3-1.2,4.3-2.5c1.3-1.2,2.3-2.5,2.9-3.9
		c0.6-1.3,0.8-2.4,0.6-3.3c-0.1-0.5-0.4-0.8-0.7-1.1c-0.3-0.2-0.7-0.3-1.2-0.1c-1.2,0.3-2.4,1.7-3.5,4
		C213.4,84,212.6,86.2,212.2,88.4z"/>
	<path class="st1" d="M224.2,95.7c-0.4-2.3,1.4-9,5.4-19.9c-1.8,0.3-2.8,0.4-3,0.4c-0.5,0.1-0.8,0.2-1.1,0.5c-0.2,0.1-0.4,0.1-0.4,0
		s-0.1-0.3-0.1-0.5c0.1-0.4,0.2-0.9,0.3-1.4c0.3-0.9,0.7-1.4,1.3-1.7c0.5-0.2,1.4-0.5,2.9-0.7c0.4-0.1,0.8-0.1,1.3-0.2
		c0.3-1,0.7-2.3,1.1-3.7s0.6-2.4,0.6-2.7c0.1-0.5,0-0.9-0.2-1.2c-0.2-0.3-0.3-0.5-0.5-0.5c-0.1,0-0.2-0.2,0-0.4
		c0.5-0.6,1.3-1,2.2-1.2c0.9-0.2,1.7-0.1,2.3,0.3c0.6,0.3,1,0.9,1.1,1.6c0.1,0.7,0,1.5-0.3,2.6c-0.2,0.7-0.7,2.2-1.4,4.4
		c-0.1,0,0,0,0.2,0c0.7-0.1,1.5-0.2,2.5-0.3c1.6-0.3,2.5-0.6,2.7-1.1c0.1,0,0.2,0.1,0.2,0.4c0,2.4-1,3.8-2.8,4.1l-3.9,0.7
		c-0.6,1.8-2,6.6-4.4,14.6c-0.5,1.7-0.7,2.9-0.6,3.8c0.1,0.4,0.2,0.8,0.5,1.1c0.2,0.3,0.5,0.4,0.9,0.3c0.9-0.2,1.9-0.7,3-1.7
		c1-1,1.9-2.1,2.8-3.3c0.8-1.2,1.6-2.6,2.4-4.1c0.8-1.5,1.4-2.8,1.8-3.8c0.4-1,0.8-1.9,1-2.7c0-0.1,0.1-0.2,0.2-0.2
		c0.1,0,0.1,0.1,0.3,0.3c0.1,0.2,0.3,0.5,0.4,0.9c0.1,0.4,0.3,0.8,0.3,1.4c0.1,0.5-0.4,1.8-1.4,4c-1.6,3.6-3.5,6.7-5.8,9.3
		s-4.6,4.1-7.1,4.5c-1.1,0.2-2.1,0-2.9-0.6C224.9,98,224.4,97.1,224.2,95.7z"/>
	<path class="st1" d="M236,93.6c-0.1-1,0.1-2.2,0.6-3.4c0.4-1,1.1-2.7,2.1-5.3c1-2.5,1.8-4.5,2.3-5.9c0.5-1.4,0.9-2.4,1-2.8
		c0.2-0.7,0.3-1.2,0.3-1.7c0-0.4-0.2-0.8-0.4-1c-0.3-0.3-0.4-0.4-0.4-0.5c0-0.2,0.1-0.3,0.2-0.5c0.7-0.6,1.6-1,2.7-1.1
		c0.9-0.1,1.6,0.1,2.1,0.5c0.5,0.4,0.8,1.1,0.9,1.9c0.1,0.7-0.1,1.5-0.4,2.4c-0.2,0.5-1,2.5-2.4,6s-2.5,6.3-3.2,8.3
		c-0.2,0.5-0.2,0.9-0.2,1.3c0.1,0.9,0.6,1.3,1.5,1.2c3.1-0.3,7-4.9,11.6-13.8c0.4-0.8,0.7-1.2,0.9-1.2c0.2,0,0.3,0.2,0.5,0.5
		c0.1,0.4,0.2,0.7,0.2,1c0,0.3,0,0.6,0,0.9c0,0.3-0.1,0.6-0.3,1c-0.1,0.4-0.3,0.6-0.4,0.8c-0.1,0.2-0.3,0.5-0.5,1
		c-0.3,0.5-0.4,0.8-0.5,0.9c-0.8,1.5-1.7,3-2.7,4.4c-1,1.4-2.1,2.8-3.3,4.1c-1.2,1.3-2.5,2.4-3.8,3.2c-1.4,0.8-2.7,1.3-4,1.4
		c-1.1,0.1-2.1-0.2-3-0.8C236.6,95.8,236.1,94.9,236,93.6z M246.3,64.4c-0.1-1.2,0.2-2.4,1-3.5c0.8-1.1,1.7-1.7,2.8-1.8
		c0.5,0,1,0.1,1.3,0.5s0.6,0.9,0.6,1.6c0.1,1.2-0.2,2.3-0.9,3.4c-0.7,1.1-1.6,1.7-2.6,1.7c-0.5,0-1-0.1-1.5-0.5
		C246.7,65.6,246.4,65.1,246.3,64.4z"/>
	<path class="st1" d="M248,92.3c0-2.4,2.7-8.7,8.2-18.9c-1.8,0-2.8,0-3,0c-0.5,0-0.9,0.1-1.2,0.3c-0.2,0.1-0.4,0.1-0.4-0.1
		c-0.1-0.2-0.1-0.3,0-0.5c0.1-0.4,0.3-0.9,0.6-1.4c0.4-0.8,0.9-1.3,1.6-1.5c0.5-0.2,1.5-0.2,2.9-0.3c0.4,0,0.8,0,1.3,0
		c0.5-0.9,1-2.1,1.6-3.6c0.6-1.4,0.9-2.3,1-2.5c0.1-0.5,0.1-0.9,0-1.2c-0.1-0.3-0.3-0.5-0.4-0.6c-0.1-0.1-0.1-0.2,0-0.4
		c0.6-0.5,1.4-0.8,2.3-0.8c0.9,0,1.7,0.2,2.3,0.6c0.6,0.4,0.9,1,0.9,1.7c0,0.7-0.2,1.5-0.7,2.5c-0.3,0.7-1,2.1-2,4.2
		c-0.1,0,0,0,0.2,0c0.7,0,1.5,0,2.5,0c1.6,0,2.5-0.3,2.8-0.7c0.1,0,0.2,0.1,0.2,0.4c-0.4,2.4-1.5,3.6-3.4,3.6l-4,0.1
		c-0.8,1.7-3,6.3-6.5,13.8c-0.8,1.6-1.1,2.8-1.1,3.7c0,0.5,0.1,0.8,0.3,1.1c0.2,0.3,0.5,0.4,0.8,0.4c1,0,2-0.4,3.2-1.2
		c1.2-0.8,2.2-1.8,3.2-2.9c1-1.1,2-2.4,2.9-3.7c1-1.4,1.7-2.6,2.3-3.5c0.6-1,1.1-1.8,1.4-2.5c0-0.1,0.1-0.1,0.2-0.1
		c0.1,0,0.1,0.1,0.2,0.3c0.1,0.2,0.2,0.5,0.3,0.9c0.1,0.4,0.1,0.9,0.1,1.4c0,0.5-0.6,1.7-2,3.7c-2.1,3.4-4.4,6.2-7.1,8.4
		c-2.6,2.2-5.2,3.4-7.6,3.4c-1.1,0-2-0.3-2.8-1C248.5,94.6,248.1,93.6,248,92.3z"/>
	<path class="st1" d="M260.9,90.3c0.1-1.9,0.8-4,2-6.2c1.2-2.3,2.6-4.4,4.3-6.3c1.7-1.9,3.6-3.5,5.7-4.8s4.1-1.8,5.9-1.7
		c1,0.1,1.8,0.5,2.3,1.2c0.5,0.8,0.8,1.7,0.7,2.9c-0.1,1.2-0.6,2.4-1.4,3.6c-0.8,1.2-1.9,2.2-3.2,3.1c-1.3,0.9-2.8,1.5-4.5,2
		c-1.5,0.4-3,0.5-4.4,0.5c-0.2,0-0.5,0-0.7-0.1c-0.8,1.6-1.3,3.1-1.4,4.4c-0.2,2.4,0.8,3.6,3,3.8c1.4,0.1,3-0.3,4.6-1.1
		c1.7-0.8,3.2-1.9,4.6-3.2c1.4-1.3,2.6-2.6,3.8-3.8c1.2-1.3,2.1-2.4,2.7-3.3l1-1.4c0.1-0.2,0.3-0.1,0.6,0.3c0.3,0.4,0.4,0.9,0.3,1.4
		c0,0.5-0.3,1.2-0.9,2.1c-1.3,1.8-2.7,3.5-4.1,5c-1.5,1.5-3.1,2.9-4.8,4.2c-1.7,1.2-3.5,2.2-5.4,2.8c-1.9,0.6-3.8,0.9-5.7,0.7
		c-1.6-0.1-2.9-0.7-3.8-1.7C261.2,93.6,260.8,92.1,260.9,90.3z M269,82c1.6,0.1,3.2-0.2,4.9-0.9c1.7-0.7,3-1.6,4.1-2.6
		c1-1,1.6-2,1.7-2.9c0-0.5-0.1-0.9-0.3-1.2c-0.2-0.3-0.6-0.5-1.1-0.6c-1.2-0.1-2.8,0.8-4.7,2.6C271.7,78.3,270.2,80.1,269,82z"/>
	<path class="st1" d="M305.6,96.8c0.6-1.4,1.5-2.4,2.6-2.9c1.1-0.6,2.1-0.6,3.2-0.2l0.1,0c0.5,0.3,1,0.6,1.3,1
		c0.3,0.4,0.5,0.8,0.5,1.3s0,0.9,0,1.2c-0.1,0.4-0.2,0.8-0.3,1.1c-0.3,0.7-0.8,1.2-1.5,1.6c-0.7,0.4-1.3,0.4-1.9,0.1
		c-0.2-0.1-0.3-0.2-0.4-0.3c-0.1-0.1-0.2-0.2-0.3-0.2c-0.1,0-0.1,0-0.2,0c-0.1,0-0.2,0.1-0.2,0.2c-0.2,0.4-0.1,0.9,0.3,1.5
		c0.4,0.6,0.9,1.1,1.6,1.4c1.5,0.7,3.1,0.9,4.7,0.8c1.6-0.2,3.1-0.7,4.6-1.5c1.5-0.8,2.9-1.9,4.4-3.2c1.5-1.3,3-2.6,4.5-4.2
		c1.5-1.5,3-3,4.5-4.4c1.5-1.5,3.1-2.8,4.8-4.1c1.7-1.3,3.4-2.3,5.1-3.2c1.7-0.9,3.6-1.4,5.6-1.7c2-0.2,4-0.1,6.1,0.5
		c0.3,0.1,0.4,0.2,0.4,0.4c0,0.2-0.1,0.4-0.2,0.5l-0.2,0.2c-0.2,0-0.5,0.1-0.9,0.1c-0.4,0.1-1.2,0.3-2.4,0.6
		c-1.2,0.4-2.4,0.8-3.6,1.3c-1.2,0.5-2.6,1.4-4.2,2.5c-1.6,1.1-3.2,2.4-4.6,3.8c-4.6,4.5-8,7.7-10.2,9.5c-4.5,3.8-8.6,5.9-12.2,6.4
		c-2.4,0.3-4.6,0-6.9-1c-2.1-1-3.5-2.3-4.2-4C304.7,100.4,304.8,98.6,305.6,96.8z M322.1,79.7c1.2-2.6,2.8-4.9,5-6.9
		c2.2-2,4.6-3.6,7.4-4.7c2.7-1.1,5.7-1.6,9-1.6c3.3,0,6.4,0.7,9.5,2.1c2.8,1.2,5.1,2.9,7,5.1c1.9,2.1,3.1,4.6,3.6,7.4
		c0.5,2.8,0.2,5.5-1,8.2c-1.5,3.5-3.9,6-7.1,7.6c-3.2,1.6-6.5,2.1-9.9,1.4c-1,1.2-2.1,3-3.6,5.3c-1.4,2.3-2.5,4.3-3.2,5.8
		c-0.5,1.1-0.9,2.2-1.3,3.4c-0.4,1.2-0.7,2.5-0.9,3.9c-0.2,1.4-0.3,2.7-0.2,3.9c0.1,1.2,0.5,2.3,1.1,3.4c0.6,1,1.5,1.8,2.6,2.3
		c0.6,0.3,1.3,0.4,2,0.4c0.7,0,1.3,0,1.8-0.1c0.5-0.1,0.7-0.1,0.7-0.1c0.1,0.1,0.2,0.2,0.1,0.4c-0.5,1.2-1.6,2.1-3.2,2.6
		c-1.6,0.5-3.2,0.4-4.8-0.3c-3-1.3-4.8-3.7-5.5-7.3c-0.7-3.5,0-7.8,2.2-12.7c1.8-4.1,4.2-8.1,7.2-11.9l-0.7-0.3
		c-0.9-0.4-1.4-0.8-1.5-1.1c-0.2-0.7-0.1-1.4,0.2-2.1c0.2-0.4,0.4-0.5,0.7-0.4c0.1,0.1,0.3,0.2,0.6,0.3c0.3,0.1,0.5,0.2,0.6,0.3
		c2,0.9,4,1.3,5.9,1.2c1.9-0.1,3.7-0.5,5.1-1.4c1.5-0.8,2.8-1.8,3.9-3c1.1-1.2,2-2.5,2.6-3.9c0.7-1.7,1.1-3.3,1-5
		c-0.1-1.6-0.5-3.1-1.3-4.4c-0.8-1.3-1.8-2.4-3-3.5c-1.2-1-2.6-1.9-4.1-2.6c-2.7-1.2-5.5-1.8-8.3-1.8c-2.8,0-5.3,0.5-7.6,1.4
		c-2.3,1-4.3,2.3-6,3.9c-1.7,1.6-3.1,3.5-4,5.5c-0.7,1.5-1,3-1,4.3c0,1.4,0.4,2.2,1.1,2.5c0,0,0,0,0.1,0c0,0,0.1,0,0.1-0.1
		c0,0,0-0.1,0-0.2c0-0.1,0-0.2,0-0.4c0-0.2,0-0.4,0.1-0.7c0-0.3,0.1-0.5,0.3-0.8c0.5-1,1.1-1.7,2-2.1c0.9-0.4,1.6-0.4,2.3-0.1
		c0.7,0.3,1.2,1,1.4,1.9c0.2,0.9,0.1,1.9-0.4,3c-0.5,1.2-1.5,2.1-2.8,2.6c-1.4,0.6-2.8,0.5-4.3-0.2c-0.6-0.3-1.1-0.7-1.6-1.3
		c-0.5-0.6-0.9-1.4-1.1-2.3c-0.3-0.9-0.3-2-0.2-3.2C321.2,82.3,321.6,81,322.1,79.7z"/>
	<path class="st1" d="M342.6,113.7c1.1-1.6,2.7-3,4.8-4.4c2.2-1.4,4.5-2.5,6.9-3.4c2.4-0.8,4.9-1.3,7.3-1.3c2.5,0,4.4,0.5,6,1.5
		c0.8,0.6,1.3,1.3,1.4,2.2c0.1,0.9-0.2,1.9-0.9,2.9c-0.7,1-1.7,1.8-3,2.4c-1.3,0.6-2.8,1-4.3,1.1c-1.5,0.1-3.1,0-4.9-0.5
		c-1.5-0.4-2.8-1-4.1-1.8c-0.2-0.1-0.4-0.3-0.6-0.4c-1.5,1-2.6,2-3.4,3.1c-1.3,2-1.1,3.6,0.7,4.8c1.2,0.8,2.7,1.3,4.6,1.4
		c1.9,0.1,3.7-0.1,5.5-0.5c1.8-0.4,3.5-0.9,5.2-1.5c1.6-0.5,3-1.1,4-1.6l1.5-0.7c0.2-0.1,0.3,0,0.3,0.5c0,0.5-0.1,1-0.4,1.4
		c-0.3,0.5-0.9,0.9-1.8,1.4c-2,0.9-4,1.7-6.1,2.3s-4.1,1-6.2,1.2c-2.1,0.2-4.1,0.1-6.1-0.3c-2-0.4-3.8-1.1-5.3-2.2
		c-1.3-0.9-2.1-2-2.4-3.4C341.2,116.7,341.6,115.3,342.6,113.7z M353.7,110.6c1.3,0.9,2.9,1.4,4.7,1.6c1.8,0.2,3.4,0.1,4.8-0.3
		c1.4-0.4,2.4-0.9,2.9-1.7c0.3-0.4,0.4-0.8,0.4-1.2c0-0.4-0.3-0.7-0.7-1c-1-0.7-2.8-0.7-5.3-0.1
		C357.9,108.7,355.7,109.5,353.7,110.6z"/>
	<path class="st1" d="M354.3,124.9c0.9-1.1,2.6-2.1,5-3.1c1.3-0.6,3.4-1.5,6.3-2.6c5.1-2,8.1-3.4,9-4.1c0.3-0.3,0.5-0.5,0.6-0.8
		c0.1-0.3,0.1-0.5,0.1-0.6c0-0.2,0-0.3,0-0.4c0.1-0.2,0.4-0.2,0.9,0s0.9,0.4,1.3,0.8c0.7,0.6,1.2,1.3,1.4,1.9
		c0.2,0.6,0.1,1.1-0.3,1.6c-0.3,0.4-0.7,0.7-1.2,0.9c-0.5,0.3-0.9,0.4-1.2,0.5c-0.3,0.1-0.8,0.2-1.4,0.4c-0.1,0-0.1,0.1-0.1,0.1
		l0.2,0l0.2,0c2.8-0.3,5-0.3,6.6,0c1.6,0.3,2.9,0.8,3.8,1.6c0.8,0.7,1.3,1.5,1.5,2.4c0.1,0.9-0.1,1.7-0.7,2.4c-1,1.1-2.3,2.2-4,3
		c-1.7,0.9-3.6,1.8-5.9,2.7s-4,1.6-5.2,2.2c-0.4,0.2-0.7,0.4-0.9,0.7c-0.8,0.9-0.6,1.7,0.3,2.6c0.4,0.4,1.2,0.5,2.4,0.5
		c1.2,0,2.4-0.2,3.6-0.4c1.2-0.2,2.8-0.6,4.6-1.2c1.8-0.5,3.2-1,4.2-1.3c1-0.3,2.2-0.7,3.6-1.2c0.4,0.4,0.2,1-0.6,2
		c-0.5,0.6-1.2,1-1.9,1.2c-0.2,0.1-0.7,0.2-1.7,0.6c-1,0.3-1.8,0.6-2.4,0.8c-0.6,0.2-1.5,0.4-2.7,0.8c-1.2,0.3-2.2,0.6-3,0.7
		c-0.8,0.2-1.8,0.3-3,0.4c-1.1,0.1-2.1,0.1-3,0.1c-0.8-0.1-1.7-0.3-2.6-0.5c-0.9-0.3-1.6-0.7-2.2-1.2c-1-0.9-1.5-1.8-1.6-2.9
		c0-1.1,0.4-2.1,1.2-3s2-1.8,3.5-2.6c1.6-0.8,3-1.5,4.4-2c1.4-0.5,2.8-1,4.2-1.5c1.4-0.5,2.3-1,2.7-1.5c0.2-0.3,0.4-0.6,0.3-1
		c0-0.4-0.2-0.7-0.5-1c-0.9-0.8-2.3-1.1-4.2-1.1c-1.9,0-3.9,0.4-6,1s-4.1,1.4-6.1,2.3c-2,0.9-3.6,1.9-4.9,2.9
		c-0.6,0.5-0.8,1-0.7,1.7c0,0.1,0,0.3-0.1,0.4c-0.1,0.2-0.3,0.2-0.6,0.2c-1-0.1-2-0.6-3.2-1.5c-0.6-0.5-0.9-1.1-0.8-1.8
		C353.6,126,353.9,125.4,354.3,124.9z"/>
	<path class="st1" d="M372.1,139.7c1-0.9,2.8-1.8,5.3-2.5c1.4-0.4,3.6-1,6.5-1.9c5.3-1.4,8.4-2.4,9.4-3c0.4-0.2,0.6-0.5,0.7-0.7
		c0.1-0.2,0.1-0.5,0.1-0.6c0-0.2,0-0.3,0.1-0.4c0.2-0.1,0.4-0.1,0.9,0.1c0.4,0.2,0.8,0.5,1.2,0.9c0.6,0.7,1,1.4,1.1,2
		c0.1,0.6-0.1,1.1-0.5,1.5c-0.4,0.3-0.8,0.6-1.3,0.8c-0.5,0.2-0.9,0.3-1.3,0.4c-0.3,0.1-0.8,0.1-1.4,0.2c-0.1,0-0.1,0-0.1,0.1
		l0.2,0.1l0.2,0c2.8,0.1,5,0.3,6.6,0.8c1.6,0.5,2.8,1.2,3.6,2.1c0.7,0.8,1.1,1.7,1.2,2.6c0,0.9-0.3,1.7-1,2.3
		c-1.1,1-2.6,1.9-4.3,2.5c-1.8,0.7-3.8,1.3-6.2,1.9c-2.4,0.6-4.2,1.1-5.4,1.6c-0.4,0.1-0.7,0.3-1,0.5c-0.9,0.8-0.8,1.7,0,2.6
		c0.4,0.4,1.1,0.7,2.3,0.8c1.2,0.1,2.4,0.1,3.6,0c1.3-0.1,2.8-0.3,4.7-0.6c1.9-0.3,3.3-0.6,4.3-0.8c1-0.2,2.3-0.5,3.8-0.8
		c0.4,0.4,0.1,1.1-0.8,1.9c-0.6,0.5-1.3,0.9-2,1c-0.2,0-0.7,0.2-1.8,0.4c-1,0.2-1.9,0.4-2.5,0.5c-0.6,0.1-1.5,0.3-2.8,0.4
		c-1.2,0.2-2.3,0.3-3.1,0.3c-0.8,0.1-1.8,0.1-3,0.1c-1.1,0-2.1-0.1-2.9-0.3s-1.6-0.5-2.5-0.9c-0.8-0.4-1.5-0.9-2.1-1.5
		c-0.9-1-1.3-2-1.2-3.1c0.1-1.1,0.6-2,1.5-2.8c0.9-0.8,2.2-1.6,3.8-2.2c1.6-0.6,3.2-1.1,4.7-1.4c1.5-0.3,2.9-0.6,4.3-1
		c1.4-0.4,2.4-0.8,2.9-1.2c0.3-0.3,0.4-0.6,0.5-0.9c0-0.4-0.1-0.7-0.4-1.1c-0.8-0.9-2.1-1.4-4-1.6c-1.9-0.2-3.9-0.1-6.1,0.3
		c-2.1,0.4-4.3,0.9-6.4,1.6c-2.1,0.7-3.8,1.4-5.2,2.3c-0.6,0.4-0.9,0.9-0.9,1.6c0,0.1,0,0.3-0.1,0.4c-0.2,0.1-0.3,0.2-0.6,0.1
		c-1-0.2-2-0.8-3-1.9c-0.5-0.6-0.7-1.2-0.6-1.9C371.3,140.7,371.6,140.2,372.1,139.7z"/>
	<path class="st1" d="M391.3,156c1.5-1.1,3.5-2,6-2.6c2.5-0.6,5-0.9,7.6-0.9c2.6,0,5,0.4,7.3,1.2c2.3,0.8,4,1.9,5.1,3.4
		c0.6,0.8,0.8,1.7,0.6,2.6c-0.2,0.9-0.8,1.7-1.8,2.5c-1,0.7-2.2,1.2-3.6,1.3c-1.4,0.1-2.9,0-4.4-0.4c-1.5-0.4-3-1.1-4.4-2.1
		c-1.3-0.9-2.4-1.9-3.3-3.1c-0.1-0.2-0.3-0.4-0.4-0.6c-1.7,0.4-3.1,1.1-4.2,1.9c-1.9,1.4-2.2,3-0.9,4.8c0.9,1.1,2.1,2.1,3.9,2.8
		c1.7,0.7,3.5,1.2,5.4,1.4c1.9,0.2,3.6,0.3,5.4,0.3c1.7,0,3.2,0,4.3-0.2l1.7-0.2c0.2-0.1,0.3,0.1,0.2,0.6c-0.2,0.5-0.4,0.9-0.8,1.2
		c-0.4,0.3-1.2,0.6-2.2,0.7c-2.2,0.2-4.4,0.3-6.5,0.2c-2.1-0.1-4.2-0.4-6.3-0.9c-2-0.5-3.9-1.2-5.7-2.3c-1.7-1-3.2-2.3-4.3-3.8
		c-1-1.3-1.3-2.6-1.2-4C388.9,158.4,389.8,157.2,391.3,156z M402.8,156.8c0.9,1.3,2.2,2.3,3.9,3.1c1.6,0.8,3.2,1.2,4.7,1.3
		c1.5,0.1,2.5-0.1,3.2-0.6c0.4-0.3,0.7-0.6,0.8-1c0.1-0.4,0-0.8-0.3-1.2c-0.7-1-2.4-1.6-5-1.8C407.4,156.3,405,156.4,402.8,156.8z"
		/>
	<path class="st1" d="M399.2,168.8c0.4-0.2,0.8-0.4,1.4-0.4c0.5,0,0.9,0.1,1,0.3c0,0,0,0.1-0.2,0.3c-0.1,0.2-0.3,0.4-0.4,0.7
		c-0.2,0.3-0.3,0.6-0.4,1c-0.1,0.4-0.1,0.8-0.1,1.3c0.1,0.5,0.3,0.9,0.5,1.4c1.1,1.7,2.8,2.6,4.9,2.6c2.2,0,4.3-0.6,6.4-2
		c1.4-0.9,2.5-1.9,3.3-3.1c-0.5,0-1,0-1.6,0c-0.6,0-1.1,0-1.4,0c-0.3,0-0.6,0-1,0c-0.3,0-0.5,0-0.7-0.1c-0.1-0.1-0.2-0.1-0.1-0.2
		c0.1-0.3,0.4-0.7,0.9-1.1c0.5-0.5,0.9-0.7,1.1-0.7c2.6,0,3.9-0.1,4-0.2c0.1-0.1,0.3-0.2,0.4-0.3c0.8-0.5,1.8-0.9,2.9-1.1
		c1.3-0.3,2.5-0.4,3.7-0.3c1.2,0.1,2.2,0.3,3.1,0.6c0.9,0.3,1.6,0.7,1.9,1.2c0.5,0.7,0.2,1.4-0.8,2.1c-0.8,0.5-2.2,0.8-4.3,0.9
		c-2.1,0.1-3.7,0-4.9-0.4c-0.1,0-0.3,0.1-0.5,0.2c-0.4,0.2-0.7,0.7-1.1,1.3c-0.4,0.7-0.8,1.3-1.1,2c-0.3,0.7-0.9,1.5-1.5,2.3
		c-0.7,0.8-1.4,1.5-2.2,2c-1.7,1.1-3.9,1.5-6.8,1.2c-0.1-0.1-0.1-0.1-0.2-0.1c-0.1,0-0.1,0.1,0,0.3c1.5,1.3,3.1,2.2,4.9,2.9
		c1.7,0.6,3.9,0.9,6.4,0.6c0,0,0.2,0,0.4,0c0.2,0,0.4,0,0.6,0c0.2,0,0.2,0.1,0.3,0.2c0,0.2-0.1,0.4-0.3,0.7c-0.3,0.3-0.6,0.6-1,0.8
		c-0.9,0.6-1.7,0.8-2.5,0.8c-2.6,0-5.3-0.8-7.9-2.2c-2.7-1.4-5-3.6-6.9-6.7c-1.1-1.6-1.6-3.4-1.7-5.2
		C397.6,170.8,398.1,169.5,399.2,168.8z"/>
</g>
<g>
	<path class="st1" d="M77.1,346.5c-0.3,0.3-0.7,0.4-1.1,0.4c-0.4,0-0.7-0.2-1-0.5l-0.1-0.2c-0.2-0.3-0.2-0.6-0.1-1
		c0.1-0.4,0.3-0.6,0.5-0.9l6.8-5.4l-1.4-2.3l-7.4,3.3c-0.4,0.2-0.8,0.2-1.2,0.1c-0.4-0.1-0.6-0.4-0.8-0.7c-0.2-0.4-0.1-0.8,0-1.1
		c0.2-0.4,0.4-0.7,0.8-0.8l7.2-3.2c0-0.6,0.2-1,0.7-1.4c0.3-0.2,0.6-0.3,1-0.2c0.3,0,0.6,0.2,0.9,0.4l17.8-7.9
		c0.3-0.1,0.7-0.2,1.1-0.1c0.4,0.1,0.6,0.3,0.8,0.6c0.2,0.3,0.2,0.7,0.2,1c-0.1,0.4-0.3,0.7-0.6,0.9l-16.1,12.8
		c0,0.1-0.1,0.1-0.3,0.2L77.1,346.5z M84.5,337l5.9-4.7l-6.9,3.1L84.5,337z"/>
	<path class="st1" d="M112.4,342.8c0.2,0.3,0.3,0.7,0.2,1.1c-0.1,0.4-0.3,0.7-0.6,1c-0.4,0.3-0.8,0.4-1.1,0.3
		c-0.4-0.1-0.7-0.3-0.9-0.6l-1.8-2.5l-22.7,16.2c-0.3,0.2-0.7,0.3-1.1,0.3s-0.7-0.2-1-0.6c-0.2-0.3-0.3-0.7-0.2-1.1
		c0.1-0.4,0.3-0.7,0.6-1l22.7-16.2l-1.8-2.5c-0.2-0.3-0.3-0.7-0.3-1.1c0.1-0.4,0.3-0.7,0.7-1c0.3-0.2,0.7-0.3,1.1-0.3
		c0.4,0.1,0.7,0.2,1,0.6L112.4,342.8z"/>
	<path class="st1" d="M100.5,374.7c0.3,0.3,0.4,0.7,0.3,1.1c-0.1,0.4-0.2,0.7-0.6,1c-0.3,0.3-0.7,0.4-1.1,0.4c-0.4,0-0.7-0.2-1-0.5
		l-4.6-5.4c-0.3-0.3-0.4-0.7-0.3-1.1c0.1-0.4,0.2-0.7,0.6-1l10-8.5c-0.2-0.3-0.2-0.6-0.1-0.9c0.1-0.3,0.2-0.6,0.5-0.8
		c0.3-0.2,0.6-0.4,0.9-0.4c0.3,0,0.6,0.1,0.9,0.2l9.5-8.1c0.3-0.3,0.7-0.4,1.1-0.4c0.4,0,0.7,0.2,1,0.5l4.6,5.4
		c0.3,0.3,0.4,0.7,0.3,1.1c-0.1,0.4-0.2,0.7-0.6,1c-0.3,0.3-0.7,0.4-1.1,0.4c-0.4,0-0.7-0.2-1-0.5l-3.7-4.3l-8.3,7.1l2.1,2.4
		c0.3,0.3,0.4,0.7,0.3,1.1c0,0.4-0.2,0.7-0.6,1c-0.3,0.3-0.7,0.4-1.1,0.4c-0.4,0-0.7-0.2-1-0.5l-2.1-2.4l-8.7,7.5L100.5,374.7z"/>
	<path class="st1" d="M109.4,388.2l-4.3-4.3c-0.3-0.3-0.4-0.6-0.4-1s0.2-0.8,0.5-1.1l20.8-21c0.3-0.3,0.7-0.5,1.1-0.5
		c0.4,0,0.8,0.1,1,0.4c0.3,0.3,0.4,0.6,0.4,1c0,0.4-0.2,0.8-0.5,1.1l-19.7,19.9l3.3,3.2c0.3,0.3,0.4,0.6,0.4,1
		c0,0.4-0.2,0.8-0.5,1.1c-0.3,0.3-0.7,0.5-1.1,0.5C110.1,388.6,109.7,388.5,109.4,388.2z"/>
	<path class="st1" d="M118.1,395.9c-0.3-0.3-0.5-0.6-0.5-1c0-0.4,0.1-0.8,0.4-1.1l19-22c0.3-0.3,0.6-0.5,1-0.5
		c0.4,0,0.8,0.1,1.1,0.3c0.3,0.3,0.5,0.6,0.5,1c0,0.4-0.1,0.8-0.4,1.1l-19,22c-0.3,0.3-0.6,0.5-1,0.5
		C118.8,396.2,118.4,396.1,118.1,395.9z"/>
	<path class="st1" d="M134.8,405.6c0.3,0.3,0.5,0.6,0.6,1c0,0.4-0.1,0.8-0.3,1.1c-0.3,0.3-0.6,0.6-1,0.6c-0.4,0.1-0.8,0-1.1-0.3
		l-5.7-4.3c-0.3-0.3-0.5-0.6-0.6-1c0-0.4,0.1-0.8,0.3-1.1l7.9-10.5c-0.2-0.2-0.3-0.5-0.3-0.9c0-0.3,0.1-0.6,0.3-0.9
		c0.2-0.3,0.5-0.5,0.8-0.6c0.3-0.1,0.6-0.1,0.9,0l7.5-10c0.3-0.3,0.6-0.6,1-0.6c0.4-0.1,0.8,0,1.1,0.3l5.7,4.3
		c0.3,0.3,0.5,0.6,0.6,1c0,0.4-0.1,0.8-0.3,1.1c-0.3,0.3-0.6,0.6-1,0.6c-0.4,0.1-0.8,0-1.1-0.3l-4.5-3.4l-6.6,8.7l2.5,1.9
		c0.3,0.2,0.5,0.6,0.6,1c0.1,0.4-0.1,0.8-0.3,1.1c-0.3,0.3-0.6,0.5-1,0.6c-0.4,0.1-0.8,0-1.1-0.3l-2.5-1.9l-6.9,9.2L134.8,405.6z"/>
	<path class="st1" d="M157,402.9c0.1,0.5,0.1,1.1,0,1.7c-0.1,0.6-0.3,1.3-0.7,2l-0.1,0.1l-6.5,10.4c-0.2,0.4-0.5,0.6-0.9,0.7
		c-0.4,0.1-0.8,0.1-1.1-0.2c-0.3-0.2-0.6-0.5-0.6-0.9c-0.1-0.4,0-0.8,0.2-1.1l6.4-10.3c0.3-0.6,0.4-1.1,0.4-1.5
		c0-0.4-0.1-0.7-0.2-0.9c-0.2-0.1-0.5-0.2-0.9-0.3l-0.2-0.1l-1.8-1.1l-7.5,12c-0.2,0.4-0.5,0.6-0.9,0.7c-0.4,0.1-0.8,0-1.1-0.2
		c-0.4-0.2-0.6-0.5-0.7-0.9c-0.1-0.4,0-0.8,0.2-1.1l7.6-12.1c-0.4-0.5-0.5-1.1-0.1-1.7c0.2-0.3,0.4-0.5,0.7-0.6
		c0.3-0.1,0.6-0.2,0.9-0.1l6.7-10.7c0.2-0.4,0.5-0.6,0.9-0.7c0.4-0.1,0.8-0.1,1.1,0.2l2.8,1.8l0.1,0.1c0.3,0.3,0.7,0.7,1,1.2
		c0.3,0.5,0.6,1.2,0.7,2c0.1,0.8,0.1,1.7-0.2,2.8c-0.2,1.1-0.7,2.2-1.5,3.5l-2.4,3.8c-0.1,0.2-0.2,0.3-0.3,0.4c0,0-0.2,0.2-0.6,0.5
		C158.2,402.4,157.6,402.7,157,402.9z M152.6,398.7l1.7,1.1c0.1,0,0.2,0.1,0.3,0.1c0.1,0,0.2,0.1,0.3,0.1l0.1,0
		c0.5,0.1,0.9,0,1.3-0.1c0.4-0.1,0.6-0.3,0.8-0.4l2.2-3.6c0.6-0.9,0.9-1.7,1.1-2.4c0.2-0.7,0.2-1.3,0.2-1.7c0-0.5-0.2-0.8-0.3-1
		c-0.2-0.2-0.3-0.4-0.4-0.5l-1.5-0.9L152.6,398.7z"/>
	<path class="st1" d="M176.1,431.9c-0.8-0.3-1.5-0.8-2-1.3c-0.5-0.5-0.8-1.1-1.1-1.7c-0.2-0.6-0.3-1.2-0.4-1.9c0-0.6,0-1.2,0.2-1.7
		c0,0,0-0.1,0-0.1c0,0,0-0.1,0-0.1l7.7-19.1c0-0.1,0.1-0.1,0.1-0.1c0.5-1,1.1-1.8,1.8-2.2c0.7-0.5,1.3-0.8,2-1
		c0.7-0.2,1.3-0.2,2-0.1c0.6,0.1,1.1,0.2,1.6,0.4c0.8,0.3,1.4,0.8,1.8,1.3c0.4,0.5,0.7,1,0.9,1.6c0.2,0.5,0.3,1.1,0.3,1.6
		c0,0.5,0,0.9-0.1,1.3c0,0.1,0,0.1,0,0.1c0,0,0,0.1,0,0.1l-0.9,2.3c-0.2,0.4-0.4,0.7-0.8,0.9c-0.4,0.2-0.7,0.2-1.1,0
		c-0.4-0.2-0.6-0.4-0.8-0.8c-0.1-0.4-0.1-0.8,0-1.2l0.9-2.2c0-0.2,0-0.5-0.1-1s-0.5-0.9-1.2-1.2c-0.1-0.1-0.3-0.1-0.6-0.2
		c-0.3-0.1-0.6-0.1-0.9,0c-0.3,0-0.7,0.2-1.1,0.4c-0.4,0.2-0.7,0.6-1,1.2l-7.7,19c0,0.2-0.1,0.4-0.1,0.7c0,0.3,0,0.6,0.2,0.9
		c0.1,0.3,0.3,0.6,0.6,0.9c0.3,0.3,0.7,0.5,1.3,0.7c0,0,0.1,0,0.3,0c0.1,0,0.3,0,0.6-0.1c0.2-0.1,0.5-0.2,0.8-0.4
		c0.3-0.2,0.6-0.5,0.9-0.8l0.9-2.2c0.2-0.4,0.4-0.7,0.8-0.9c0.4-0.2,0.7-0.2,1.1,0c0.4,0.2,0.6,0.4,0.8,0.8c0.1,0.4,0.1,0.8,0,1.2
		l-1,2.4c0,0.1-0.1,0.1-0.1,0.2c0,0-0.1,0.1-0.1,0.2c-0.5,0.7-1,1.3-1.6,1.7c-0.5,0.4-1.1,0.7-1.6,0.8c-0.5,0.2-1,0.3-1.5,0.3
		c-0.5,0-0.8-0.1-1.1-0.1C176.6,432.1,176.4,432,176.1,431.9z"/>
	<path class="st1" d="M206,408.5c0.4,0.2,0.6,0.5,0.7,0.9c0.1,0.4,0.1,0.8-0.2,1.2l-9.7,18.7l-2.8,9.5c-0.1,0.4-0.4,0.8-0.7,0.9
		c-0.3,0.2-0.7,0.2-1.1,0.1c-0.4-0.1-0.7-0.3-0.9-0.7s-0.2-0.7-0.1-1.2l2.8-9.5l2.9-20.8c0.1-0.4,0.3-0.8,0.6-1
		c0.3-0.3,0.7-0.4,1.1-0.3c0.4,0.1,0.7,0.2,0.9,0.6c0.2,0.3,0.3,0.7,0.2,1.1l-1.7,12.7l6-11.5c0.2-0.4,0.5-0.6,0.9-0.8
		C205.2,408.3,205.6,408.3,206,408.5z"/>
	<path class="st1" d="M211.5,442.5c-0.9-0.2-1.6-0.5-2.2-0.9c-0.6-0.4-1-0.9-1.4-1.5c-0.3-0.6-0.6-1.2-0.7-1.8
		c-0.1-0.6-0.2-1.2-0.1-1.7c0,0,0-0.1,0-0.1c0,0,0-0.1,0-0.1l4.1-20.2c0-0.1,0-0.1,0.1-0.1c0.3-1.1,0.7-1.9,1.3-2.5
		c0.6-0.6,1.2-1.1,1.8-1.3c0.6-0.3,1.3-0.4,1.9-0.5c0.6,0,1.2,0,1.6,0.1c0.8,0.2,1.5,0.5,2,0.9c0.5,0.4,0.9,0.9,1.2,1.4
		c0.3,0.5,0.5,1,0.6,1.5c0.1,0.5,0.2,0.9,0.2,1.3c0,0.1,0,0.1,0,0.1c0,0,0,0.1,0,0.2l-0.5,2.5c-0.1,0.4-0.3,0.7-0.6,1
		c-0.3,0.2-0.7,0.3-1.1,0.2c-0.4-0.1-0.7-0.3-0.9-0.6c-0.2-0.3-0.3-0.7-0.2-1.1l0.5-2.3c0-0.2-0.1-0.5-0.3-1c-0.2-0.4-0.7-0.8-1.4-1
		c-0.2,0-0.4,0-0.6-0.1c-0.3,0-0.6,0-0.9,0.1c-0.3,0.1-0.6,0.3-1,0.6c-0.3,0.3-0.6,0.7-0.7,1.3l-4,20.1c0,0.2,0,0.4,0.1,0.7
		c0,0.3,0.1,0.6,0.3,0.8c0.2,0.3,0.4,0.5,0.8,0.8c0.3,0.2,0.8,0.4,1.4,0.4c0,0,0.1,0,0.3,0c0.1,0,0.3-0.1,0.5-0.2
		c0.2-0.1,0.4-0.3,0.7-0.5c0.3-0.2,0.5-0.6,0.7-1l0.5-2.3c0.1-0.4,0.3-0.7,0.6-1c0.3-0.2,0.7-0.3,1.1-0.2c0.4,0.1,0.7,0.3,0.9,0.6
		c0.2,0.3,0.3,0.7,0.2,1.1l-0.5,2.5c0,0.1,0,0.1-0.1,0.2c0,0,0,0.1-0.1,0.2c-0.4,0.8-0.8,1.4-1.2,1.9c-0.5,0.5-0.9,0.9-1.4,1.1
		c-0.5,0.3-1,0.4-1.4,0.5c-0.5,0.1-0.8,0.1-1.2,0.1C212,442.6,211.8,442.5,211.5,442.5z"/>
	<path class="st1" d="M232.6,445.4l-6-0.6c-0.4,0-0.7-0.2-1-0.5c-0.2-0.3-0.3-0.7-0.3-1.1l3-29.4c0-0.4,0.2-0.8,0.5-1
		c0.3-0.3,0.7-0.4,1.1-0.3c0.4,0,0.7,0.2,1,0.5c0.2,0.3,0.3,0.7,0.3,1.1l-2.9,27.9l4.6,0.5c0.4,0,0.7,0.2,1,0.5
		c0.2,0.3,0.4,0.7,0.3,1.1c0,0.4-0.2,0.8-0.5,1C233.4,445.3,233,445.4,232.6,445.4z"/>
	<path class="st1" d="M253.5,443.3c0.4,0,0.8,0.2,1,0.5c0.3,0.3,0.4,0.7,0.4,1.1c0,0.4-0.1,0.8-0.4,1.1s-0.6,0.4-1.1,0.4l-7.1-0.1
		c-0.4,0-0.8-0.2-1-0.5c-0.3-0.3-0.4-0.7-0.4-1.1l0.2-13.1c-0.3-0.1-0.6-0.2-0.8-0.5c-0.2-0.3-0.3-0.6-0.3-0.9c0-0.4,0.1-0.7,0.3-1
		c0.2-0.3,0.5-0.4,0.8-0.5l0.2-12.5c0-0.4,0.1-0.8,0.4-1.1c0.3-0.3,0.6-0.4,1.1-0.4l7.1,0.1c0.4,0,0.8,0.2,1,0.5
		c0.3,0.3,0.4,0.7,0.4,1.1c0,0.4-0.1,0.8-0.4,1.1c-0.3,0.3-0.6,0.4-1.1,0.4l-5.7-0.1l-0.2,10.9l3.2,0.1c0.4,0,0.7,0.2,1,0.4
		c0.3,0.3,0.4,0.7,0.4,1.1c0,0.4-0.2,0.8-0.4,1.1c-0.3,0.3-0.6,0.4-1,0.4l-3.2-0.1l-0.2,11.5L253.5,443.3z"/>
	<path class="st1" d="M280.5,443.9c-0.4,0.1-0.8,0-1.1-0.2c-0.3-0.2-0.5-0.6-0.6-1l-2.2-13.4c-0.3-0.1-0.6-0.2-0.8-0.4
		c-0.2-0.2-0.4-0.5-0.4-0.8c-0.1-0.4,0-0.7,0.1-0.9c0.1-0.3,0.3-0.5,0.6-0.7l-2.2-12.9c-0.1-0.4,0-0.8,0.2-1.1
		c0.2-0.3,0.5-0.5,0.9-0.6l3.3-0.6l0.1,0c0.4,0,1,0,1.6,0.2c0.6,0.2,1.2,0.5,1.9,1.1c0.6,0.5,1.2,1.3,1.8,2.2s1,2.2,1.2,3.6l0.8,5
		c0,0.2,0,0.3,0,0.4c0,0,0,0.2-0.1,0.6c-0.1,0.4-0.3,0.9-0.6,1.4c-0.3,0.5-0.7,1-1.3,1.5c-0.5,0.5-1.3,0.9-2.2,1.2
		c0,0-0.1,0.1-0.2,0.1l-2.1,0.4l2.2,13.3c0.1,0.5,0,0.8-0.2,1.2C281.2,443.7,280.8,443.9,280.5,443.9z M278.9,425.9l2-0.3
		c0.7-0.3,1.2-0.6,1.5-1c0.3-0.4,0.4-0.8,0.5-1l-0.8-4.7c-0.2-1.1-0.5-1.9-0.8-2.5c-0.3-0.6-0.7-1.1-1-1.4c-0.3-0.3-0.7-0.5-0.9-0.6
		s-0.5-0.1-0.6-0.1l-1.8,0.3L278.9,425.9z"/>
	<path class="st1" d="M306.9,436.9c0.2,0.4,0.2,0.8,0,1.2c-0.1,0.4-0.4,0.6-0.8,0.8l-0.2,0.1c-0.3,0.1-0.7,0-1-0.1
		c-0.3-0.2-0.6-0.4-0.7-0.8l-3.3-8l-2.6,0.7l1.1,8c0,0.4,0,0.8-0.3,1.1c-0.2,0.3-0.5,0.5-0.9,0.6c-0.4,0-0.8-0.1-1.1-0.3
		c-0.3-0.3-0.5-0.6-0.6-1l-1.1-7.8c-0.6-0.1-0.9-0.5-1.1-1.1c-0.1-0.3-0.1-0.7,0-1c0.1-0.3,0.3-0.6,0.7-0.7l-2.7-19.3
		c0-0.4,0-0.7,0.2-1c0.2-0.3,0.4-0.5,0.8-0.6c0.4-0.1,0.7-0.1,1,0.1c0.3,0.2,0.6,0.4,0.7,0.8l7.9,19c0,0.1,0.1,0.2,0.1,0.3
		L306.9,436.9z M299.8,427.2l-2.9-7l1.1,7.5L299.8,427.2z"/>
	<path class="st1" d="M317,416.3c0.5,0.3,0.9,0.6,1.3,1.1c0.4,0.5,0.8,1.1,1.1,1.8l0,0.1l4.2,11.5c0.1,0.4,0.1,0.8,0,1.2
		c-0.1,0.4-0.4,0.6-0.8,0.8c-0.4,0.1-0.8,0.1-1.1-0.1c-0.4-0.2-0.6-0.5-0.8-0.9l-4.2-11.4c-0.3-0.6-0.6-1-0.9-1.2
		c-0.3-0.2-0.6-0.3-0.8-0.4c-0.2,0.1-0.4,0.3-0.8,0.5l-0.2,0.1l-2,0.7l4.9,13.3c0.1,0.4,0.1,0.8,0,1.2c-0.2,0.4-0.4,0.6-0.8,0.8
		c-0.4,0.2-0.8,0.1-1.1-0.1c-0.4-0.2-0.6-0.5-0.7-0.9l-4.9-13.4c-0.7,0-1.2-0.3-1.4-1c-0.1-0.3-0.1-0.6-0.1-0.9
		c0.1-0.3,0.2-0.6,0.5-0.8l-4.3-11.8c-0.1-0.4-0.1-0.8,0-1.2c0.1-0.4,0.4-0.6,0.8-0.8l3.2-1.2l0.1,0c0.4-0.1,1-0.1,1.6,0
		c0.6,0.1,1.3,0.3,2,0.7c0.7,0.4,1.4,1,2.1,1.9c0.7,0.8,1.3,2,1.9,3.4l1.5,4.2c0.1,0.2,0.1,0.3,0.1,0.4c0,0,0,0.3,0,0.8
		C317.4,415.1,317.3,415.7,317,416.3z M311.1,417.2l1.9-0.7c0.1-0.1,0.2-0.1,0.3-0.2c0.1,0,0.2-0.1,0.3-0.2l0.1-0.1
		c0.4-0.3,0.6-0.7,0.7-1.1c0.1-0.4,0.2-0.6,0.2-0.8l-1.4-3.9c-0.4-1-0.8-1.8-1.2-2.3c-0.4-0.5-0.9-0.9-1.2-1.2
		c-0.4-0.2-0.7-0.4-1-0.4c-0.3,0-0.5,0-0.6,0l-1.7,0.6L311.1,417.2z"/>
	<path class="st1" d="M327,395.5c0.4-0.2,0.7-0.2,1.1,0c0.4,0.1,0.7,0.4,0.8,0.8c0.2,0.4,0.2,0.8,0.1,1.2s-0.4,0.6-0.7,0.8l-2.8,1.3
		l12,25.2c0.2,0.4,0.2,0.8,0.1,1.2c-0.1,0.4-0.4,0.7-0.7,0.8c-0.4,0.2-0.7,0.2-1.1,0c-0.4-0.1-0.7-0.4-0.8-0.8l-12-25.2l-2.7,1.3
		c-0.4,0.2-0.7,0.2-1.1,0.1c-0.4-0.1-0.7-0.4-0.9-0.8c-0.2-0.4-0.2-0.8-0.1-1.2c0.1-0.4,0.4-0.7,0.7-0.8L327,395.5z"/>
	<path class="st1" d="M350.1,419.5c-0.4,0.2-0.7,0.2-1.1,0.1c-0.4-0.1-0.7-0.4-0.9-0.7l-14.5-25.2c-0.2-0.4-0.3-0.8-0.2-1.2
		c0.1-0.4,0.3-0.7,0.7-0.9c0.4-0.2,0.7-0.2,1.1-0.1c0.4,0.1,0.7,0.4,0.9,0.7l14.5,25.2c0.2,0.4,0.3,0.8,0.2,1.2
		C350.7,419,350.5,419.3,350.1,419.5z"/>
	<path class="st1" d="M363,411.9c-0.7,0.5-1.5,0.8-2.2,0.9c-0.7,0.1-1.4,0.1-2-0.1c-0.6-0.2-1.2-0.4-1.7-0.8c-0.5-0.3-1-0.7-1.3-1.1
		c0,0,0,0-0.1,0c0,0-0.1,0-0.1-0.1l-11.5-17.1c0-0.1-0.1-0.1,0-0.1c-0.5-1-0.8-1.9-0.9-2.7s0.1-1.6,0.3-2.2c0.2-0.7,0.6-1.2,1-1.7
		c0.4-0.5,0.8-0.8,1.2-1.1c0.7-0.4,1.4-0.7,2.1-0.8c0.7-0.1,1.3,0,1.8,0.1c0.6,0.1,1.1,0.4,1.5,0.6c0.4,0.3,0.8,0.5,1,0.8
		c0,0.1,0.1,0.1,0.1,0.1c0,0,0.1,0.1,0.1,0.1l1.4,2.1c0.2,0.4,0.3,0.7,0.3,1.1c-0.1,0.4-0.3,0.7-0.6,0.9c-0.3,0.2-0.7,0.3-1.1,0.2
		c-0.4-0.1-0.7-0.3-1-0.7l-1.3-2c-0.2-0.1-0.5-0.3-0.9-0.5s-1-0.1-1.7,0.3c-0.1,0.1-0.3,0.2-0.5,0.4c-0.2,0.2-0.4,0.4-0.5,0.7
		c-0.2,0.3-0.2,0.7-0.2,1.1c0,0.4,0.1,0.9,0.4,1.4l11.4,17c0.1,0.1,0.3,0.3,0.5,0.4c0.2,0.2,0.5,0.3,0.8,0.4c0.3,0.1,0.7,0.1,1.1,0
		c0.4-0.1,0.8-0.3,1.3-0.7c0,0,0.1-0.1,0.2-0.2c0.1-0.1,0.2-0.3,0.2-0.5c0.1-0.2,0.1-0.5,0.1-0.9c0-0.3-0.1-0.7-0.2-1.2l-1.3-2
		c-0.2-0.4-0.3-0.7-0.3-1.1c0.1-0.4,0.3-0.7,0.6-0.9c0.3-0.2,0.7-0.3,1.1-0.2c0.4,0.1,0.7,0.3,1,0.7l1.4,2.1c0,0.1,0.1,0.1,0.1,0.2
		c0,0,0,0.1,0.1,0.2c0.3,0.8,0.5,1.6,0.5,2.2c0,0.7-0.1,1.3-0.2,1.8c-0.1,0.5-0.4,1-0.6,1.4c-0.3,0.4-0.5,0.7-0.8,0.9
		C363.5,411.6,363.3,411.8,363,411.9z"/>
	<path class="st1" d="M374.6,403.1c-0.3,0.2-0.7,0.3-1.1,0.3s-0.7-0.3-1-0.6l-17.9-23c-0.3-0.3-0.4-0.7-0.3-1.1c0-0.4,0.2-0.7,0.5-1
		c0.3-0.2,0.7-0.3,1.1-0.3c0.4,0.1,0.7,0.3,1,0.6l17.9,23c0.3,0.3,0.4,0.7,0.3,1.1C375.1,402.5,374.9,402.9,374.6,403.1z"/>
	<path class="st1" d="M383.4,396.1c-0.3,0.3-0.6,0.4-1,0.4c-0.4,0-0.7-0.2-1.1-0.5l-9-10.1c-0.3,0.1-0.6,0.1-0.9,0.1
		c-0.3-0.1-0.6-0.2-0.8-0.5c-0.2-0.3-0.4-0.6-0.4-0.9c0-0.3,0-0.6,0.1-0.9l-8.7-9.8c-0.3-0.3-0.4-0.7-0.4-1.1c0-0.4,0.2-0.7,0.5-1
		l2.5-2.2l0.1-0.1c0.3-0.3,0.8-0.5,1.4-0.7c0.6-0.2,1.3-0.2,2.1-0.1c0.8,0.1,1.7,0.4,2.7,0.9c1,0.5,2,1.3,3,2.4l3.4,3.8
		c0.1,0.1,0.2,0.3,0.3,0.4c0,0,0.1,0.2,0.2,0.6c0.1,0.4,0.2,0.9,0.2,1.5c0,0.6-0.1,1.2-0.2,2c-0.2,0.7-0.6,1.4-1.2,2.2
		c0,0,0,0.1-0.1,0.2l-1.6,1.4l9,10.1c0.3,0.3,0.5,0.7,0.4,1.1C383.8,395.5,383.7,395.8,383.4,396.1z M372.4,381.7l1.5-1.4
		c0.5-0.6,0.7-1.2,0.7-1.7c0-0.5,0-0.9-0.1-1.1l-3.2-3.5c-0.7-0.8-1.4-1.4-2-1.7c-0.6-0.3-1.1-0.6-1.6-0.6c-0.4-0.1-0.8-0.1-1.1,0
		c-0.3,0.1-0.5,0.2-0.6,0.2l-1.4,1.2L372.4,381.7z"/>
	<path class="st1" d="M402,376.2c0.4,0.2,0.6,0.6,0.6,1c0.1,0.4,0,0.8-0.2,1.1l-0.2,0.2c-0.2,0.2-0.5,0.4-0.9,0.4
		c-0.4,0-0.7-0.1-1-0.3l-7-5.1l-1.8,1.9l5.2,6.2c0.3,0.3,0.4,0.7,0.4,1.1c0,0.4-0.2,0.7-0.5,1c-0.3,0.2-0.7,0.4-1.1,0.3
		c-0.4,0-0.7-0.2-1-0.6l-5.1-6c-0.6,0.2-1.1,0.1-1.5-0.3c-0.3-0.2-0.4-0.5-0.5-0.9c-0.1-0.3,0-0.7,0.2-0.9l-12.5-14.9
		c-0.2-0.3-0.3-0.6-0.3-1c0-0.4,0.1-0.7,0.3-0.9c0.3-0.3,0.6-0.4,0.9-0.4c0.4,0,0.7,0.1,1,0.3l16.7,12c0.1,0,0.2,0.1,0.3,0.2
		L402,376.2z M390.8,371.7l-6.1-4.4l4.8,5.8L390.8,371.7z"/>
	<path class="st1" d="M388.7,343.3c0.3-0.3,0.6-0.5,1-0.5c0.4,0,0.8,0.1,1.1,0.3c0.4,0.3,0.6,0.6,0.6,1c0,0.4-0.1,0.7-0.3,1.1
		l-1.9,2.4l21.9,17.4c0.3,0.3,0.5,0.6,0.6,1s0,0.8-0.3,1.1c-0.3,0.3-0.6,0.5-1,0.5c-0.4,0-0.8-0.1-1.1-0.3l-21.9-17.4l-1.9,2.4
		c-0.3,0.3-0.6,0.5-1,0.5c-0.4,0-0.8-0.1-1.1-0.4c-0.3-0.3-0.5-0.6-0.6-1c-0.1-0.4,0-0.8,0.3-1.1L388.7,343.3z"/>
	<path class="st1" d="M420,354.9c-0.2,0.3-0.5,0.5-0.9,0.6c-0.4,0.1-0.8,0-1.1-0.3L394,338.7c-0.4-0.2-0.6-0.6-0.7-1
		c-0.1-0.4,0-0.8,0.2-1.1c0.2-0.3,0.5-0.5,0.9-0.6s0.8,0,1.1,0.3l23.9,16.5c0.4,0.2,0.6,0.6,0.7,1
		C420.3,354.2,420.3,354.6,420,354.9z"/>
	<path class="st1" d="M403.4,322.6c0.2-0.3,0.5-0.6,0.9-0.7c0.4-0.1,0.8,0,1.1,0.2c0.4,0.2,0.6,0.5,0.7,0.9c0.1,0.4,0.1,0.8-0.1,1.1
		l-2.9,4.9l9.4,5.6l1.6-2.7c0.2-0.3,0.5-0.6,0.9-0.7c0.4-0.1,0.8,0,1.2,0.2c0.4,0.2,0.6,0.5,0.7,0.9c0.1,0.4,0.1,0.8-0.1,1.1
		l-1.6,2.7l11.2,6.7c0.4,0.2,0.6,0.5,0.7,0.9c0.1,0.4,0.1,0.8-0.1,1.1c-0.2,0.3-0.5,0.6-0.9,0.7c-0.4,0.1-0.8,0-1.1-0.2l-11.3-6.7
		c-0.2,0.2-0.5,0.4-0.8,0.4c-0.3,0-0.6,0-1-0.2c-0.3-0.2-0.5-0.4-0.7-0.8c-0.1-0.3-0.2-0.6-0.1-0.9l-10.7-6.4
		c-0.4-0.2-0.6-0.5-0.7-0.9c-0.1-0.4-0.1-0.8,0.1-1.1L403.4,322.6z"/>
</g>
</svg>
